<svg width="51" height="51" viewBox="0 0 51 51" fill="none" xmlns="http://www.w3.org/2000/svg">
<circle cx="25.5" cy="25.5" r="25.5" fill="black"/>
<path d="M40.6643 24.683L33.0805 17.099C32.864 16.8825 32.5755 16.7637 32.2678 16.7637C31.9598 16.7637 31.6715 16.8827 31.455 17.099L30.7664 17.7877C30.5501 18.0039 30.4309 18.2926 30.4309 18.6004C30.4309 18.908 30.5501 19.2065 30.7664 19.4226L35.1907 23.8567H21.1345C20.5008 23.8567 20 24.3528 20 24.9867V25.9604C20 26.5943 20.5008 27.1405 21.1345 27.1405H35.2409L30.7666 31.5993C30.5503 31.8158 30.4311 32.0966 30.4311 32.4044C30.4311 32.7119 30.5503 32.9969 30.7666 33.2132L31.4551 33.8997C31.6716 34.1162 31.96 34.2342 32.268 34.2342C32.5756 34.2342 32.8642 34.1147 33.0807 33.8982L40.6645 26.3143C40.8815 26.0972 41.0008 25.8073 41 25.4991C41.0007 25.1899 40.8815 24.8998 40.6643 24.683Z" fill="white"/>
<circle cx="16.5" cy="25.5" r="1.5" fill="white"/>
<circle cx="11.5" cy="25.5" r="1.5" fill="white"/>
</svg>
