<svg width="17" height="15" viewBox="0 0 17 15" fill="none" xmlns="http://www.w3.org/2000/svg">
<path d="M16.7283 6.84057L10.589 0.701132C10.4137 0.525882 10.1801 0.429688 9.93109 0.429688C9.68176 0.429688 9.44832 0.52602 9.27307 0.701132L8.71567 1.25867C8.54056 1.43365 8.44409 1.66736 8.44409 1.91655C8.44409 2.16561 8.54056 2.4072 8.71567 2.58217L12.2972 6.17163H0.918406C0.40537 6.17163 0 6.57327 0 7.08645V7.87466C0 8.38783 0.40537 8.82997 0.918406 8.82997H12.3379L8.71581 12.4395C8.54069 12.6147 8.44422 12.8421 8.44422 13.0913C8.44422 13.3402 8.54069 13.5709 8.71581 13.746L9.27321 14.3017C9.44846 14.477 9.6819 14.5725 9.93123 14.5725C10.1803 14.5725 10.4139 14.4757 10.5891 14.3005L16.7284 8.16117C16.9041 7.98537 17.0007 7.75069 17 7.50122C17.0005 7.25092 16.9041 7.0161 16.7283 6.84057Z" fill="white"/>
</svg>
