<svg width="87" height="68" viewBox="0 0 87 68" fill="none" xmlns="http://www.w3.org/2000/svg">
<path d="M85.6643 36.2011H80.376C88.0275 20.287 79.338 4.46271 64.9684 1.23306C64.2874 1.0802 63.6119 1.50807 63.4594 2.18869C63.3058 2.86931 63.7334 3.54555 64.4147 3.69841C77.5006 6.64089 85.4227 21.4687 77.5722 36.2011H72.8858L68.5179 27.4205C68.0138 26.4072 66.5311 26.5202 66.1849 27.595L62.1531 40.0925L57.6287 29.7711C57.3486 29.1314 56.6036 28.8408 55.9638 29.1206C55.3253 29.4013 55.0341 30.1464 55.3149 30.7855L61.1756 44.1569C61.6416 45.2185 63.18 45.1423 63.5356 44.0368L67.6369 31.3227L70.9722 38.0273C71.1864 38.4565 71.6241 38.7282 72.1039 38.7282H76.0371C67.9868 50.9581 50.558 60.2846 43.8027 64.9626C33.0279 57.9816 18.741 49.6242 11.5687 38.7282H17.6922C18.1761 38.7282 18.6165 38.4518 18.8287 38.0169L24.2244 26.9167L30.9837 46.7525C31.3788 47.9127 33.0421 47.8826 33.3906 46.7029L38.7377 28.6147L43.5594 36.7197C44.0936 37.6183 45.4248 37.5131 45.8159 36.549L51.5969 22.3046L53.3236 26.2422C53.6037 26.8816 54.3484 27.1718 54.9876 26.8924C55.6263 26.612 55.9169 25.8669 55.6375 25.2282L52.7098 18.5475C52.2563 17.5143 50.7972 17.5561 50.3811 18.5802L44.4304 33.2427L39.4308 24.8381C38.8693 23.8943 37.4457 24.0707 37.1339 25.1263L32.0942 42.1775L25.6258 23.1958C25.264 22.1321 23.7877 22.036 23.2937 23.0507L16.9022 36.2011H10.0336C1.15454 19.5386 12.4484 3.18887 27.7938 3.18887C33.5486 3.18887 38.9102 5.48043 42.8896 9.64007C43.387 10.1604 44.2188 10.1604 44.7158 9.64007C48.1878 6.01157 52.8414 3.75375 57.8194 3.28302C58.5145 3.21755 59.0247 2.60105 58.9589 1.90592C58.8931 1.2118 58.2763 0.70159 57.5821 0.767053C52.4247 1.25567 47.5797 3.45106 43.8034 6.98913C39.4518 2.89968 33.8158 0.662109 27.7938 0.662109C11.1722 0.662109 -1.53217 17.9789 7.22983 36.2011H1.94145C1.24396 36.2011 0.677734 36.7666 0.677734 37.4645C0.677734 38.1623 1.24396 38.7282 1.94145 38.7282H8.60491C15.8747 50.9402 31.23 59.8267 43.1177 67.5285C43.5345 67.7988 44.0713 67.7988 44.4881 67.5285C56.3593 59.8372 71.729 50.9436 79.0009 38.7282H85.6643C86.3618 38.7282 86.9277 38.1623 86.9277 37.4645C86.9277 36.7666 86.3618 36.2011 85.6643 36.2011V36.2011Z" fill="#15A2DE"/>
</svg>
