<svg width="92" height="92" viewBox="0 0 92 92" fill="none" xmlns="http://www.w3.org/2000/svg">
<path d="M11.1409 58.7807L9.42676 60.4946C8.90049 61.0209 8.90049 61.8741 9.42676 62.4004C9.95284 62.9267 10.8061 62.9269 11.3326 62.4006L13.0467 60.6867C13.5729 60.1604 13.5729 59.3071 13.0467 58.7809C12.5204 58.2548 11.6671 58.2546 11.1409 58.7807V58.7807ZM14.5304 70.1958C14.0041 70.722 14.0043 71.5753 14.5306 72.1016L15.6528 73.2236C16.1793 73.7497 17.0322 73.7499 17.5586 73.2235C18.0849 72.6972 18.0847 71.8439 17.5586 71.3177L16.4364 70.1956C15.9098 69.6695 15.0567 69.6693 14.5304 70.1958ZM88.0448 58.9481V33.4823C88.0448 29.985 85.1995 27.1396 81.7021 27.1396H75.4852C74.741 27.1396 74.1376 27.7428 74.1376 28.4872C74.1376 29.2316 74.741 29.8348 75.4852 29.8348H81.7021C83.7134 29.8348 85.3497 31.4709 85.3497 33.4823V36.146H51.6664C50.9975 34.037 50.2007 31.9278 49.2847 29.8348H68.6845C69.4287 29.8348 70.0321 29.2316 70.0321 28.4872C70.0321 27.7428 69.4287 27.1396 68.6845 27.1396H48.0354C42.1979 15.2303 33.2254 5.49587 25.7196 0.781207C23.6088 -0.546588 20.8783 -0.149148 19.2278 1.72522C17.4992 3.68816 17.5772 6.64201 19.4093 8.59615C23.4676 12.9247 27.9048 19.474 30.7791 27.1396H6.34642C2.84905 27.1396 0.00390625 29.985 0.00390625 33.4823V71.2848C0.00390625 79.5931 6.76326 86.3525 15.0716 86.3525H19.3389C20.0831 86.3525 20.6864 85.7493 20.6864 85.0049C20.6864 84.2605 20.0831 83.6573 19.3389 83.6573H15.0716C8.24935 83.6573 2.69902 78.107 2.69902 71.2848V51.3522C9.75215 49.2364 22.501 49.9675 22.501 53.7406C22.501 69.2178 36.8733 80.1864 50.7237 75.3699C51.3552 78.4292 52.6591 81.2454 54.4731 83.6573H25.7687C25.0245 83.6573 24.4211 84.2605 24.4211 85.0049C24.4211 85.7493 25.0245 86.3525 25.7687 86.3525H56.8917C60.623 89.8527 65.6379 92.0002 71.1455 92.0002C82.643 92.0002 91.9971 82.6461 91.9971 71.1486C91.9973 66.5962 90.5299 62.3808 88.0448 58.9481ZM85.3497 38.8411V44.889C76.6335 41.7905 65.0475 45.3477 63.1255 51.9017C61.8019 52.4552 60.5472 53.1418 59.3779 53.9442C59.4354 48.9873 57.4462 44.3814 54.124 41.2455C53.4269 40.5876 52.8782 39.7654 52.5068 38.8409H85.3497V38.8411ZM85.3497 47.7814V55.8982C80.3024 51.1941 73.386 49.351 66.7977 50.7543C69.9266 47.0991 78.4511 44.8275 85.3497 47.7814ZM2.69902 33.4823C2.69902 31.4711 4.33514 29.8348 6.34642 29.8348H31.7087C32.3516 31.8787 32.8734 33.9887 33.2435 36.146H2.69884V33.4823H2.69902ZM50.3478 72.6392C38.1783 77.2864 25.1961 67.6397 25.1961 53.7406C25.1961 46.6198 9.99938 46.6663 2.69902 48.5577V38.8413H33.6207C33.6384 39.0048 33.6591 39.1676 33.6751 39.3316C33.7879 40.4968 33.4173 41.6827 32.6581 42.585C30.0852 45.6432 28.6683 49.6051 28.6683 53.7406C28.6683 62.8895 35.557 70.3327 44.0243 70.3327C46.2651 70.3327 48.4328 69.817 50.424 68.8272C50.2763 70.1541 50.2599 71.4003 50.3478 72.6392V72.6392ZM44.0243 67.6372C37.0429 67.6372 31.3634 61.4032 31.3634 53.7403C31.3634 50.2386 32.5557 46.8931 34.7204 44.3196C35.9431 42.8662 36.5398 40.9536 36.3576 39.0715C35.0573 25.6376 27.7656 13.5683 21.3755 6.75251C20.5127 5.8324 20.4579 4.40632 21.2504 3.50633C22.0228 2.62898 23.2989 2.44284 24.2855 3.06271C34.1043 9.23076 45.3703 23.5188 49.6514 38.8117C50.1291 40.5177 51.036 42.037 52.2741 43.2054C55.6074 46.3519 57.3407 51.2901 56.4512 56.3689C54.0067 58.7995 52.1609 61.8308 51.154 65.2199C49.047 66.8019 46.5912 67.6372 44.0243 67.6372V67.6372ZM71.1455 89.3049C61.134 89.3049 52.989 81.1599 52.989 71.1484C52.989 61.1368 61.1338 52.9918 71.1455 52.9918C81.157 52.9918 89.302 61.1368 89.302 71.1484C89.3021 81.1599 81.1571 89.3049 71.1455 89.3049ZM81.6796 65.949H76.3451V60.6144C76.3451 59.308 75.2823 58.2453 73.9759 58.2453H68.3154C67.009 58.2453 65.9462 59.308 65.9462 60.6144V65.949H60.6117C59.3053 65.949 58.2425 67.0118 58.2425 68.3182V73.9786C58.2425 75.2852 59.3053 76.3478 60.6117 76.3478H65.9462V81.6824C65.9462 82.989 67.009 84.0517 68.3154 84.0517H73.9759C75.2823 84.0517 76.3451 82.989 76.3451 81.6824V76.3478H81.6796C82.986 76.3478 84.049 75.285 84.049 73.9786V68.3182C84.049 67.0118 82.986 65.949 81.6796 65.949ZM81.3539 73.6529H76.0193C74.7129 73.6529 73.65 74.7157 73.65 76.0221V81.3568H68.6414V76.0221C68.6414 74.7157 67.5784 73.6529 66.272 73.6529H60.9375V68.6441H66.272C67.5784 68.6441 68.6414 67.5813 68.6414 66.2747V60.9402H73.65V66.2747C73.65 67.5811 74.7129 68.6441 76.0193 68.6441H81.3539V73.6529ZM27.7661 79.4849L29.6349 77.6161C30.1612 77.0899 30.1612 76.2366 29.6349 75.7105C29.1087 75.1844 28.2554 75.1843 27.7293 75.7107L25.8605 77.5795C25.3342 78.1058 25.3342 78.959 25.8605 79.4853C26.3868 80.0112 27.2399 80.0114 27.7661 79.4849V79.4849Z" fill="#15A2DE"/>
</svg>
