<svg width="92" height="92" viewBox="0 0 92 92" fill="none" xmlns="http://www.w3.org/2000/svg">
<path d="M58.8563 76.173C68.9481 73.2869 76.4505 64.2694 77.0856 53.4194H78.6452C82.7362 53.4194 86.0645 50.091 86.0645 46C86.0645 41.909 82.7362 38.5806 78.6452 38.5806H77.1613V32.6452H72.545C74.4755 30.7577 75.6774 28.1312 75.6774 25.2258C75.6774 21.623 73.8315 18.4445 71.0374 16.5808C71.1501 16.008 71.2258 15.4278 71.2258 14.8387C71.2258 9.92858 67.2327 5.93548 62.3226 5.93548C62.1505 5.93548 61.9813 5.95181 61.8121 5.96071C60.5835 2.43948 57.2581 0 53.4194 0C50.324 0 47.5966 1.58923 46 3.99161C44.4034 1.58923 41.676 0 38.5806 0C34.7419 0 31.4165 2.43948 30.1879 5.96071C30.0187 5.95181 29.8495 5.93548 29.6774 5.93548C24.7673 5.93548 20.7742 9.92858 20.7742 14.8387C20.7742 15.4278 20.8499 16.008 20.9626 16.5808C18.1685 18.4445 16.3226 21.623 16.3226 25.2258C16.3226 28.1312 17.5245 30.7577 19.455 32.6452H14.8387V38.5806H13.3548C9.26381 38.5806 5.93548 41.909 5.93548 46C5.93548 50.091 9.26381 53.4194 13.3548 53.4194H14.9144C15.551 64.2694 23.0519 73.2854 33.1437 76.173C29.4489 79.4732 27.183 84.039 26.8032 89.0323H23.7419V80.129H20.7742V89.0323H17.8065V83.0968H14.8387V89.0323H11.871C11.871 85.5659 11.871 77.1613 11.871 77.1613H8.90323V88.4298C8.90323 88.6494 8.90471 88.8364 8.90471 89.0323H5.93548V80.129H2.96774V89.0323H0V92H92V89.0323H65.1968C64.817 84.039 62.5511 79.4746 58.8563 76.173ZM78.6452 41.5484C81.0995 41.5484 83.0968 43.5457 83.0968 46C83.0968 48.4543 81.0995 50.4516 78.6452 50.4516H77.1613V49.404C77.8587 48.2243 79.0918 47.4839 80.4763 47.4839H81.6129V44.5161H80.4763C79.2847 44.5161 78.1555 44.8307 77.1613 45.3812V41.5484H78.6452ZM53.4194 2.96774C55.8618 2.96774 57.9852 4.4531 58.8874 6.62548C55.6793 7.97284 53.4194 11.1468 53.4194 14.8387H56.3871C56.3871 11.5653 59.0492 8.90323 62.3226 8.90323C65.596 8.90323 68.2581 11.5653 68.2581 14.8387C68.2581 14.9826 68.2328 15.1236 68.2225 15.2675C67.2906 14.993 66.3083 14.8387 65.2903 14.8387C59.5641 14.8387 54.9032 19.4995 54.9032 25.2258H57.871C57.871 21.1348 61.1993 17.8065 65.2903 17.8065C69.3814 17.8065 72.7097 21.1348 72.7097 25.2258C72.7097 29.3168 69.3814 32.6452 65.2903 32.6452H47.4839V8.90323C47.4839 5.62981 50.1459 2.96774 53.4194 2.96774ZM19.2903 25.2258C19.2903 21.1348 22.6186 17.8065 26.7097 17.8065C30.8007 17.8065 34.129 21.1348 34.129 25.2258H37.0968C37.0968 19.4995 32.4359 14.8387 26.7097 14.8387C25.6917 14.8387 24.7094 14.993 23.7775 15.2675C23.7672 15.1236 23.7419 14.9826 23.7419 14.8387C23.7419 11.5653 26.404 8.90323 29.6774 8.90323C32.9508 8.90323 35.6129 11.5653 35.6129 14.8387H38.5806C38.5806 11.1468 36.3207 7.97284 33.1126 6.62548C34.0148 4.4531 36.1382 2.96774 38.5806 2.96774C41.8541 2.96774 44.5161 5.62981 44.5161 8.90323V32.6452H26.7097C22.6186 32.6452 19.2903 29.3168 19.2903 25.2258ZM8.90323 46C8.90323 43.5457 10.9005 41.5484 13.3548 41.5484H14.8387V45.3812C13.8445 44.8307 12.7153 44.5161 11.5237 44.5161H10.3871V47.4839H11.5237C12.9082 47.4839 14.1413 48.2243 14.8387 49.404V50.4516H13.3548C10.9005 50.4516 8.90323 48.4543 8.90323 46V46ZM17.8065 51.9355V35.6129H74.1935V51.9355C74.1935 64.2086 64.2086 74.1935 51.9355 74.1935H40.0645C27.7914 74.1935 17.8065 64.2086 17.8065 51.9355ZM36.9617 76.9506C37.9812 77.0752 39.0125 77.1613 40.0645 77.1613H51.9355C52.9875 77.1613 54.0188 77.0752 55.0383 76.9506C59.1842 79.7136 61.7869 84.1221 62.2291 89.0323H56.8026L58.0297 84.1251L54.4685 80.5638L52.3703 82.662L54.7445 85.0362L53.7458 89.0323H38.2542L37.2555 85.0362L39.6297 82.662L37.5315 80.5638L33.9703 84.1251L35.1974 89.0323H29.7724C30.2131 84.1206 32.8158 79.7136 36.9617 76.9506Z" fill="#15A2DE"/>
<path d="M71.2266 83.0977H89.033V86.0654H71.2266V83.0977Z" fill="#15A2DE"/>
<path d="M71.2266 77.1602H89.033V80.1279H71.2266V77.1602Z" fill="#15A2DE"/>
<path d="M71.2266 71.2266H89.033V74.1943H71.2266V71.2266Z" fill="#15A2DE"/>
<path d="M22.2578 26.7089H25.2256C25.2256 25.0722 26.5566 23.7412 28.1933 23.7412V20.7734C24.9199 20.7734 22.2578 23.4355 22.2578 26.7089Z" fill="#15A2DE"/>
<path d="M66.7734 23.7412V20.7734C63.5 20.7734 60.8379 23.4355 60.8379 26.7089H63.8056C63.8056 25.0722 65.1367 23.7412 66.7734 23.7412Z" fill="#15A2DE"/>
<path d="M57.8709 59.3545V56.3867H34.1289V59.3545C34.1289 65.8998 39.4545 71.2254 45.9999 71.2254C52.5452 71.2254 57.8709 65.8998 57.8709 59.3545ZM37.0966 59.3545H54.9031C54.9031 64.2646 50.91 68.2577 45.9999 68.2577C41.0897 68.2577 37.0966 64.2646 37.0966 59.3545Z" fill="#15A2DE"/>
<path d="M60.8383 50.452C66.5645 50.452 71.2254 46.459 71.2254 41.5488H68.2576C68.2576 44.8222 64.9293 47.4843 60.8383 47.4843C56.7472 47.4843 53.4189 44.8222 53.4189 41.5488H50.4512C50.4512 46.459 55.112 50.452 60.8383 50.452Z" fill="#15A2DE"/>
<path d="M41.5476 41.5488H38.5799C38.5799 44.8222 35.2516 47.4843 31.1605 47.4843C27.0695 47.4843 23.7412 44.8222 23.7412 41.5488H20.7734C20.7734 46.459 25.4343 50.452 31.1605 50.452C36.8868 50.452 41.5476 46.459 41.5476 41.5488Z" fill="#15A2DE"/>
<path d="M89.9491 11.8699L85.6548 3.28125L81.5801 18.2223L79.7638 11.8699H74.1934V14.8376H77.5261L81.6454 29.2594L86.4739 11.5553L88.115 14.8376H91.9998V11.8699H89.9491Z" fill="#15A2DE"/>
</svg>
