<svg width="92" height="92" viewBox="0 0 92 92" fill="none" xmlns="http://www.w3.org/2000/svg">
<path d="M79.7703 0C74.4981 0 69.8355 3.36052 68.1684 8.3623L56.0972 44.5758C54.6464 48.9289 50.5885 51.8539 46 51.8544C41.4117 51.8544 37.354 48.9298 35.9032 44.5771L23.8316 8.3623C22.1645 3.36052 17.5017 0 12.2297 0C5.48622 0 0 5.48622 0 12.2295V66.1656C0 80.4107 11.5893 92 25.8344 92C28.9784 92 31.708 89.7624 32.3245 86.6795L33.9455 78.5741C34.8933 73.8343 39.0898 70.3942 43.9234 70.3942H48.0761C52.9097 70.3942 57.1061 73.8343 58.054 78.5741L59.6749 86.6795C60.2916 89.7624 63.0211 92 66.1651 92C80.4107 92 92 80.4107 92 66.1656V12.2295C92 5.48622 86.5138 0 79.7703 0V0ZM66.1656 89.3047C64.3019 89.3047 62.684 87.9782 62.3185 86.1508L60.6975 78.0455C59.4985 72.0502 54.1905 67.6987 48.0766 67.6987H43.9239C37.81 67.6987 32.5021 72.05 31.303 78.0455L29.682 86.1508C29.316 87.9782 27.6981 89.3047 25.8344 89.3047C13.0755 89.3047 2.69531 78.9245 2.69531 66.1656V22.126C7.56844 21.4656 11.3377 17.2807 11.3377 12.2294C11.3377 11.7377 11.7379 11.3376 12.2295 11.3376C12.6142 11.3376 12.9542 11.5823 13.0757 11.9472L23.1279 42.1049C23.3163 42.6697 23.842 43.0267 24.4062 43.0267C24.5475 43.0267 24.6912 43.0042 24.8326 42.9572C25.5386 42.7218 25.9203 41.9586 25.6849 41.2525L15.6328 11.0953C15.1441 9.6282 13.7765 8.64243 12.2295 8.64243C10.2515 8.64243 8.64243 10.2515 8.64243 12.2295C8.64243 15.7913 6.07577 18.7631 2.69531 19.3974V12.2295C2.69531 6.97241 6.97241 2.69531 12.2297 2.69531C16.3399 2.69531 19.975 5.31516 21.2746 9.21455L33.3462 45.4293C35.1647 50.8844 40.2498 54.5497 46.0004 54.5497C51.7509 54.549 56.8362 50.8834 58.6545 45.4281L70.7257 9.21455C72.0252 5.31516 75.6601 2.69531 79.7703 2.69531C85.0276 2.69531 89.3047 6.97241 89.3047 12.2295V19.3973C85.9244 18.763 83.3576 15.7913 83.3576 12.2294C83.3576 10.2514 81.7485 8.64225 79.7705 8.64225C78.223 8.64225 76.8554 9.62802 76.3679 11.0941L73.0367 21.0869C72.8013 21.793 73.1828 22.5562 73.8889 22.7916C74.0304 22.8386 74.1741 22.8611 74.3153 22.8611C74.8796 22.8611 75.4053 22.5039 75.5936 21.9393L78.9252 11.9454C79.0461 11.5819 79.3856 11.3376 79.7703 11.3376C80.2619 11.3376 80.6621 11.7377 80.6621 12.2294C80.6621 17.2807 84.4314 21.4655 89.3045 22.126V66.1654C89.3047 78.9245 78.9245 89.3047 66.1656 89.3047V89.3047Z" fill="#15A2DE"/>
<path d="M72.8211 25.9954C72.1144 25.7598 71.3516 26.1416 71.1164 26.8476L64.2957 47.3081C61.6681 55.1948 54.3162 60.4943 46.0015 60.4957C37.6872 60.4957 30.3342 55.1968 27.7046 47.3101C27.4691 46.6041 26.7063 46.2219 25.9999 46.4578C25.2938 46.6932 24.9123 47.4565 25.1477 48.1625C28.1449 57.1516 36.5253 63.1911 46.0018 63.1911C55.4786 63.1896 63.8581 57.1491 66.8528 48.1604L73.6735 27.7001C73.9086 26.9941 73.5271 26.2308 72.8211 25.9954V25.9954Z" fill="#15A2DE"/>
</svg>
