<svg width="92" height="90" viewBox="0 0 92 90" fill="none" xmlns="http://www.w3.org/2000/svg">
<path d="M89.7864 66.8005H84.329C85.6613 65.6773 86.6696 64.0935 87.2011 61.8584C87.5515 60.3835 87.3921 59.0064 87.2235 57.5482C87.0298 55.8751 86.8297 54.1453 87.3323 51.9039V51.9037C87.7186 50.18 87.4374 48.8864 86.4965 48.0587C85.3577 47.057 83.4975 47.0146 80.9674 47.9333C80.1656 48.2249 79.4479 48.6652 78.8377 49.2262C77.3251 48.6557 75.6955 48.4456 74.0675 48.6186C71.1165 48.9335 68.3856 50.7039 66.6461 53.2785C64.8742 52.0864 62.7045 51.1373 60.279 50.5037C59.5581 50.3153 58.8227 50.747 58.6345 51.467C58.4464 52.1872 58.8777 52.9234 59.5978 53.1115C61.8599 53.7024 63.8451 54.5889 65.4052 55.6964C65.3635 55.8092 65.3231 55.9228 65.285 56.0372C64.8406 57.3885 64.6789 58.7866 64.8176 60.0798C65.1008 62.7374 66.2125 65.0723 67.9231 66.8003H54.7359V62.6091H58.3187C59.0629 62.6091 59.6663 62.0059 59.6663 61.2615C59.6663 60.517 59.0629 59.9138 58.3187 59.9138H42.8068V54.8775C42.9687 54.8062 43.1376 54.7208 43.3158 54.6166C45.9285 53.0896 49.6769 52.2512 53.6004 52.3148C53.608 52.315 53.6153 52.315 53.6229 52.315C54.3569 52.315 54.9578 51.7262 54.97 50.9894C54.9822 50.2452 54.3887 49.6319 53.6446 49.6199C52.0909 49.5951 50.5775 49.6961 49.133 49.9101V42.7472C50.3274 41.8739 51.4553 40.7438 52.33 39.2269C53.6184 36.9911 53.6698 35.7665 53.763 33.5436C53.778 33.1878 53.7943 32.7982 53.8171 32.3648C53.8178 32.3528 53.8169 32.3409 53.8171 32.3289C53.8175 32.3172 53.8189 32.3057 53.8189 32.2939V28.9881C53.8189 25.0684 50.63 21.8793 46.7105 21.8793H46.2393C48.2357 19.8385 49.5709 17.1918 49.5709 14.8124V12.0468C49.5709 8.57277 48.4585 5.62086 46.3538 3.51061C44.4682 1.61994 41.9306 0.554934 39.2087 0.511988C39.1945 0.511629 39.1803 0.511629 39.1661 0.511988C36.444 0.554934 33.9058 1.61994 32.0189 3.51043C29.9122 5.62104 28.7989 8.57295 28.7989 12.047V14.8126C28.7989 17.1911 30.1343 19.8377 32.1326 21.8795H31.6591C28.1651 21.8795 26.4444 24.0155 25.4536 25.6226L17.6067 38.3659C16.7192 36.7722 14.5191 33.3447 11.9176 33.1454C11.1935 33.0906 10.2855 33.1127 9.68013 33.7833C9.04313 34.4893 9.20305 35.373 9.31967 36.0182L11.2157 46.8299C11.3839 47.7885 11.5165 48.5457 12.1496 49.06C12.8126 49.5988 13.5754 49.5174 14.4591 49.4226C14.6404 49.4033 14.8445 49.3814 15.076 49.3602C18.8162 49.0154 21.6534 50.103 22.6992 50.586C23.8314 51.1097 24.8339 51.6793 25.7215 52.2676V59.4906C25.6797 59.4906 25.6401 59.491 25.5979 59.491H14.7538C13.1688 59.491 13.126 59.4008 12.9215 58.9697C12.6577 58.4109 10.2496 53.5018 6.96702 53.2504C6.24091 53.1942 5.33007 53.2168 4.72488 53.8898C4.08753 54.5981 4.24458 55.4511 4.37072 56.1364L6.23785 66.8007H2.20854C0.990797 66.8005 0 67.7913 0 69.009V79.5732C0 80.7938 0.990797 81.7868 2.20854 81.7868H5.56726V84.29C5.56726 87.1564 7.89924 89.4886 10.7656 89.4886H81.2293C84.0957 89.4886 86.4277 87.1564 86.4277 84.29V81.7868H89.7864C91.0069 81.7868 92 80.7938 92 79.5732V69.009C92 67.7913 91.007 66.8005 89.7864 66.8005V66.8005ZM80.3297 58.7882C79.2456 56.4322 79.0291 54.2233 79.7196 52.5684C80.1424 51.5555 80.8923 50.8286 81.8879 50.4667C82.9594 50.0777 83.6828 49.9686 84.1326 49.9686C84.4745 49.9686 84.6583 50.0319 84.7164 50.0827C84.7625 50.1235 84.8957 50.4516 84.7022 51.3147V51.3145C84.0995 54.0017 84.3471 56.14 84.5458 57.8584C84.6926 59.1269 84.8193 60.2223 84.5787 61.2352C83.814 64.4511 81.9512 66.0005 77.5598 66.5536C77.5713 66.5437 77.583 66.5338 77.5945 66.5238C81.3219 63.3061 81.1388 60.5402 80.3297 58.7882ZM67.4976 59.7938C67.3993 58.8772 67.5196 57.8695 67.8437 56.8839C68.6836 54.36 71.0222 51.6543 74.3534 51.2989C75.3272 51.1948 76.3011 51.2798 77.2297 51.5371C76.2486 53.8944 76.4797 56.8692 77.8818 59.9165C79.2009 62.7726 74.1806 65.8106 72.5884 66.6853C69.7739 65.6176 67.8417 63.0249 67.4976 59.7938ZM52.0406 62.6093V66.8005H40.3109C39.2464 66.699 38.4111 65.8004 38.4111 64.7098C38.4111 63.5516 39.3534 62.6093 40.5116 62.6093H52.0406ZM46.4377 50.4646C44.7859 50.9088 43.2711 51.5206 41.9554 52.2895C41.9295 52.3046 41.9056 52.3184 41.8832 52.3312C41.7331 52.154 41.5389 51.9048 41.3594 51.6748C41.1402 51.3937 40.8674 51.0437 40.5398 50.6421C39.8414 49.7911 38.8423 48.7683 37.8116 47.8305L45.2344 44.8359C45.6218 44.6792 46.0259 44.5056 46.4375 44.3141V50.4646H46.4377ZM34.7336 46.1663C34.3228 46.3307 33.8697 46.3237 33.4575 46.1474C33.0456 45.9709 32.7283 45.6475 32.563 45.2332C32.3977 44.8224 32.4036 44.369 32.5797 43.957C32.7563 43.5437 33.081 43.2253 33.4936 43.0605C33.5056 43.0559 33.5175 43.0507 33.5295 43.0456L40.3377 40.0957L41.9383 43.2596L34.7336 46.1663ZM39.1873 3.20712C42.5405 3.26947 46.1173 5.55923 46.7703 10.4201C43.826 9.85879 37.8197 8.6565 37.1215 8.47556C37.1211 8.47538 37.1209 8.47538 37.1206 8.4752C36.7294 8.37421 36.3679 8.33019 36.0317 8.33019C34.7573 8.33019 33.8506 8.96089 33.0909 9.48936C32.6248 9.81369 32.1734 10.1276 31.6079 10.3572C32.2837 5.53964 35.8466 3.26929 39.1873 3.20712V3.20712ZM31.494 14.8126V13.2064C32.9378 12.8763 33.8927 12.2149 34.6301 11.7018C35.5142 11.087 35.7981 10.917 36.4458 11.0846V11.0844C36.9296 11.2095 43.9189 12.6395 46.8754 13.1836V14.8126C46.8754 17.1289 44.6644 20.5236 41.6172 21.974C41.5747 21.9909 41.533 22.0096 41.4927 22.0305C41.3256 22.1065 41.1569 22.1782 40.9853 22.242C40.2849 22.4985 39.7303 22.6128 39.1873 22.6128C38.6483 22.6128 38.0752 22.495 37.3906 22.2441C37.2268 22.1832 37.064 22.114 36.9021 22.0402C36.8589 22.017 36.814 21.9965 36.7684 21.978C33.937 20.619 31.494 17.3681 31.494 14.8126V14.8126ZM42.2966 24.621V25.0253C42.2966 26.987 40.9019 28.5829 39.1875 28.5829C37.4702 28.5829 36.0732 26.987 36.0732 25.0253V24.6205C36.2006 24.674 36.3285 24.7249 36.4573 24.7729C37.4546 25.1382 38.3221 25.3083 39.1875 25.3083C40.0493 25.3083 40.9154 25.1382 41.9186 24.7707C42.0451 24.7236 42.1712 24.6735 42.2966 24.621V24.621ZM27.7484 27.0366C28.8262 25.2882 29.9593 24.575 31.6591 24.575H33.3777V25.0255C33.3777 28.4733 35.9839 31.2784 39.1873 31.2784C42.3879 31.2784 44.9918 28.4735 44.9918 25.0255V24.575H46.7103C49.1436 24.575 51.1234 26.555 51.1234 28.9885V32.2601C51.1011 32.6888 51.0848 33.0766 51.0699 33.4309C50.98 35.5721 50.9529 36.2182 49.9946 37.8812C48.9045 39.7716 47.235 41.0847 44.4453 42.2449L42.8026 38.9976C43.4301 38.6693 43.8768 38.3224 44.5075 37.6608C44.5745 37.5907 44.6335 37.5136 44.6838 37.4308L46.3085 34.7565C46.695 34.1204 46.4927 33.2915 45.8566 32.905C45.2207 32.5181 44.3916 32.7208 44.0051 33.3569L42.4578 35.9036C41.9436 36.4313 41.7092 36.5613 40.9334 36.9001L32.4742 40.5656C31.7159 40.8725 31.0764 41.3789 30.6031 42.0252C29.3998 41.362 28.102 40.8757 26.7625 40.5126L29.5065 36.0515C29.8964 35.4175 29.6986 34.5876 29.0646 34.1975C28.4307 33.8077 27.6007 34.0056 27.2108 34.6393L23.9622 39.9205C22.6602 39.7117 21.3535 39.5795 20.0871 39.4787L27.7484 27.0366ZM18.9008 46.7565C17.6901 46.5973 16.319 46.5389 14.8298 46.6762C14.5838 46.6987 14.0192 46.7591 13.9436 46.7668C13.9159 46.6223 12.0396 35.9201 12.0396 35.9201C13.1042 36.3729 14.708 38.4694 15.5881 40.3169C16.0885 41.376 16.6202 41.8247 17.3323 41.9948C18.1711 42.1028 18.7818 42.0848 19.0584 42.1039C19.4149 42.1294 19.7768 42.1576 20.1405 42.1878L18.9008 46.7565ZM28.4169 54.411C30.5314 56.4361 31.443 58.3196 31.5571 59.029C31.1503 59.2369 30.0973 59.3751 28.4169 59.4427V54.411ZM17.11 62.1865H25.5979C30.8292 62.1865 32.6296 61.8776 33.6246 60.8099C33.9487 60.4618 34.3216 59.8534 34.2567 58.9338C34.0865 56.4466 30.6552 51.296 23.8303 48.1396C23.3567 47.9207 22.5741 47.5977 21.5452 47.3039L22.8536 42.4816C25.3221 42.8266 27.7632 43.4293 29.7476 44.6456C29.7512 45.1848 29.8549 45.7232 30.0615 46.2362C30.4928 47.3163 31.3219 48.1644 32.396 48.6248C32.9507 48.8625 33.5351 48.9816 34.1196 48.9816C34.3929 48.9816 34.6664 48.9554 34.9366 48.9033C36.1975 49.9417 37.6077 51.3177 38.454 52.3491C38.7604 52.7247 39.012 53.0474 39.234 53.3322C39.5278 53.7092 39.8108 54.0707 40.1116 54.371V59.9321C37.6539 60.1363 35.7159 62.2005 35.7159 64.71C35.7159 65.4591 35.8888 66.1684 36.1964 66.8007H17.11V62.1865ZM10.4851 60.1224C11.3929 62.0364 12.9618 62.1753 14.4147 62.1854V66.8005H8.97413L7.08741 56.0178C8.15979 56.4386 9.66845 58.3924 10.4851 60.1224V60.1224ZM89.3047 79.0917H49.2166C48.4723 79.0917 47.8689 79.6949 47.8689 80.4393C47.8689 81.1838 48.4723 81.787 49.2166 81.787H83.7324V84.2902C83.7324 85.6706 82.6095 86.7934 81.2293 86.7934H10.7656C9.38544 86.7934 8.26257 85.6706 8.26257 84.2902V81.787H43.2876C44.0319 81.787 44.6353 81.1838 44.6353 80.4393C44.6353 79.6949 44.0319 79.0917 43.2876 79.0917H2.69531V69.496H7.83635C7.83761 69.496 7.83905 69.4962 7.8403 69.4962C7.8412 69.4962 89.3047 69.496 89.3047 69.496V79.0917Z" fill="#15A2DE"/>
</svg>
