<svg width="92" height="92" viewBox="0 0 92 92" fill="none" xmlns="http://www.w3.org/2000/svg">
<path d="M9.36131 91.9998C9.03731 91.4238 8.51529 90.8838 8.42529 90.2898C7.86728 86.7617 7.90328 83.2516 9.0013 79.8135C10.4413 75.2774 14.1854 72.4874 18.6855 72.5954C20.6116 72.6494 22.2856 73.4594 23.8156 74.5394C25.7777 75.9074 27.7037 77.3475 29.5938 78.8055C36.6499 84.2596 44.6601 86.0597 53.4083 85.2496C59.4204 84.7096 65.1085 83.1616 70.3286 80.0475C77.4028 75.8354 82.2989 69.7873 85.521 62.2811C86.979 58.8791 87.969 55.369 88.491 51.8589C86.619 51.1029 84.855 50.3289 83.0549 49.6449C80.0489 48.5108 77.0428 48.5649 74.1627 49.9869C69.5186 52.2909 64.9285 52.3629 60.3024 50.0049C59.3304 49.5189 58.2324 49.2669 57.1704 48.9069C56.7383 50.0589 56.3963 51.0849 55.9823 52.0569C51.9682 61.6331 43.7241 66.7452 33.3198 66.2232C30.7278 66.0972 28.1897 65.1432 25.6337 64.5852C23.4556 64.1172 21.2776 63.5052 19.0635 63.2352C14.4014 62.6772 10.6933 64.4052 8.02928 68.3113C5.70723 71.7134 4.44721 75.5474 3.87119 79.5795C3.38518 82.9996 3.20518 86.4737 2.97117 89.9298C2.91717 90.7938 2.77317 91.4958 2.03515 92.0178C1.67515 92.0178 1.31514 92.0178 0.955129 92.0178C0.217113 91.5138 0.0371094 90.8118 0.0371094 89.9298C0.145112 83.7916 0.721124 77.7435 2.91717 71.9474C3.81719 69.5533 5.00522 67.3213 6.66125 65.3412C9.99133 61.3631 14.3294 59.6891 19.3695 60.3731C22.8076 60.8411 26.1917 61.8491 29.5758 62.6772C36.4699 64.3692 42.698 63.1452 48.1342 58.5011C51.0502 56.017 52.8863 52.7409 54.0383 49.1229C55.6763 43.9748 56.0003 38.7366 54.6683 33.4625C54.5963 33.1745 54.4883 32.8865 54.3983 32.6165C53.3183 29.5024 52.6523 29.0164 49.3942 28.7824C46.6041 28.5844 43.8861 27.9724 41.348 26.7664C36.1819 24.3003 33.6078 20.1062 33.0678 14.5801C32.6358 9.99001 33.5718 5.59792 35.1739 1.31382C35.5879 0.1978 36.3439 -0.234209 37.1899 0.125798C38.0179 0.467806 38.2519 1.24182 37.8559 2.32185C36.5059 5.93992 35.6779 9.66601 35.8939 13.5541C36.2539 19.9802 39.746 24.0303 46.0821 25.3263C47.7742 25.6684 49.5022 25.8844 51.2302 25.9924C52.9943 26.1004 54.3083 26.8564 55.3163 28.2424C56.9723 30.5105 57.6744 33.1385 57.9984 35.8566C58.1964 37.5486 58.2684 39.2586 58.2324 40.9507C58.1964 42.6427 57.9624 44.3528 57.8004 46.1168C60.2664 46.9628 62.7865 47.9888 65.3785 48.6729C67.6826 49.2849 69.9686 48.7449 72.0927 47.7008C76.6828 45.3968 81.2189 45.4508 85.791 47.7368C86.709 48.2048 87.735 48.4568 88.923 48.8709C88.977 46.8548 89.103 45.0728 89.067 43.2907C88.959 37.2066 87.843 31.3385 85.125 25.8484C82.9289 21.4383 79.9408 17.7122 75.4047 15.4981C69.8246 12.7981 64.3345 12.8521 59.0244 16.2901C57.6744 17.1722 56.3603 18.1262 54.9743 18.9542C49.2682 22.3563 42.014 18.4862 41.654 11.8621C41.438 8.02797 42.41 4.44589 43.8861 0.971817C44.2461 0.107798 45.0201 -0.198209 45.7761 0.107798C46.5681 0.431805 46.8741 1.22382 46.4961 2.12384C45.3981 4.7699 44.5701 7.46996 44.4981 10.35C44.4801 11.034 44.4801 11.7361 44.6061 12.4021C45.1281 15.4441 47.0181 16.9022 50.6182 17.2082C51.6442 17.2982 52.5803 17.1002 53.4263 16.5242C54.6503 15.7141 55.8923 14.9401 57.0984 14.0941C65.6125 8.17197 75.7828 10.746 81.7589 16.3982C85.989 20.4122 88.617 25.3623 90.1111 30.9065C90.9031 33.8405 91.2451 36.8826 91.8031 39.8887C91.8391 40.1227 91.9111 40.3567 91.9651 40.5907C91.9651 42.9847 91.9651 45.3788 91.9651 47.7728C91.9111 48.0068 91.8391 48.2228 91.8031 48.4569C91.4971 50.5269 91.2991 52.6149 90.8671 54.667C89.2471 62.3532 86.115 69.3733 80.7689 75.1694C70.4906 86.3117 57.4764 89.5877 42.86 87.6977C36.8119 86.9057 31.6098 84.0076 26.8397 80.3175C25.1657 79.0215 23.4556 77.7615 21.6916 76.5555C20.3776 75.6554 18.9015 75.2054 17.2635 75.5294C14.6894 76.0154 12.9614 77.5095 11.9894 79.9035C10.6933 83.1076 10.7473 86.4557 11.2154 89.8037C11.3414 90.7398 11.1794 91.4418 10.4053 91.9818C10.0813 91.9998 9.72132 91.9998 9.36131 91.9998Z" fill="#15A2DE"/>
</svg>
