<svg width="92" height="76" viewBox="0 0 92 76" fill="none" xmlns="http://www.w3.org/2000/svg">
<path d="M33.4317 15.5726V17.7288C33.4317 18.4733 34.035 19.0765 34.7793 19.0765C35.5236 19.0765 36.127 18.4733 36.127 17.7288V15.5726C36.127 14.8281 35.5236 14.2249 34.7793 14.2249C34.035 14.2249 33.4317 14.8281 33.4317 15.5726ZM58.445 59.7324C58.445 60.9758 59.4566 61.9875 60.7 61.9875H65.2871V66.5745C65.2871 67.818 66.2987 68.8296 67.5421 68.8296H72.5694C73.8128 68.8296 74.8245 67.818 74.8245 66.5745V61.9875H79.4115C80.655 61.9875 81.6666 60.9758 81.6666 59.7324V54.7051C81.6666 53.4617 80.655 52.4501 79.4115 52.4501H74.8245V47.863C74.8245 46.6196 73.8128 45.6079 72.5694 45.6079H67.5421C66.2987 45.6079 65.2871 46.6196 65.2871 47.863V52.4501H60.7C59.4564 52.4501 58.445 53.4617 58.445 54.7051V59.7324ZM61.1403 55.1454H65.7273C66.9707 55.1454 67.9824 54.1337 67.9824 52.8903V48.3032H72.1294V52.8903C72.1294 54.1337 73.141 55.1454 74.3844 55.1454H78.9715V59.2922H74.3844C73.141 59.2922 72.1294 60.3038 72.1294 61.5472V66.1343H67.9824V61.5472C67.9824 60.3038 66.9707 59.2922 65.7273 59.2922H61.1403V55.1454ZM49.9749 18.5502C50.464 17.9892 50.4056 17.138 49.8444 16.6489C49.2834 16.1598 48.4321 16.2182 47.943 16.7794C47.4524 17.3421 46.7445 17.6649 46.0006 17.6649C45.2567 17.6649 44.5485 17.3421 44.058 16.7794C43.5687 16.218 42.7177 16.1598 42.1565 16.6489C41.5955 17.138 41.5371 17.9892 42.0261 18.5502C43.0287 19.7003 44.4772 20.36 46.0004 20.36C47.5238 20.36 48.9722 19.7003 49.9749 18.5502V18.5502ZM58.5693 17.7288V15.5726C58.5693 14.8281 57.9659 14.2249 57.2216 14.2249C56.4774 14.2249 55.874 14.8281 55.874 15.5726V17.7288C55.874 18.4733 56.4774 19.0765 57.2216 19.0765C57.9661 19.0765 58.5693 18.4731 58.5693 17.7288ZM59.9665 33.1945C60.9669 32.3675 61.8919 31.4754 62.7346 30.5369C65.1471 31.4267 67.9987 31.8562 70.5699 31.4283C71.398 32.6513 72.692 33.5666 74.3289 34.0629C78.5214 35.3345 83.7477 33.4338 86.1437 29.7626C86.8107 28.7407 87.2045 27.6677 87.3221 26.6028C92.98 19.8694 93.2057 12.0155 89.608 6.63064C89.1946 6.0118 88.3576 5.84541 87.7388 6.25887C87.1199 6.67251 86.9533 7.50931 87.3668 8.12815C89.9886 12.052 90.1505 17.7259 86.6094 23.07C85.7888 21.6221 84.3621 20.5801 82.6306 20.0435C84.9053 16.4365 84.957 12.6286 82.6108 10.1247C80.1042 7.45019 74.4453 6.31907 65.951 10.8509C64.9192 9.52378 63.5536 8.37378 61.8797 7.41659C65.9934 4.97663 69.9366 3.48792 73.6267 2.99019C77.1926 2.50881 80.4839 2.98929 83.1443 4.37881C83.8042 4.72327 84.6183 4.46775 84.9628 3.80794C85.3074 3.14813 85.0519 2.33415 84.3921 1.98951C81.2348 0.340886 77.3877 -0.237166 73.2664 0.319145C68.7464 0.928822 63.9342 2.86063 58.9544 6.0569C51.8354 3.38748 40.1848 3.38155 33.05 6.05565C27.817 2.69514 21.7349 0.0580596 15.5415 0.112145C10.8015 0.152216 6.62706 1.84343 3.78693 4.87421C-1.13649 10.1284 -1.68274 19.0344 4.67871 26.6012C4.79605 27.6664 5.1901 28.74 5.85728 29.7623C8.24693 33.4236 13.4665 35.3374 17.672 34.0625C19.3088 33.5662 20.6029 32.6509 21.4311 31.428C24.0004 31.8556 26.8535 31.4263 29.2663 30.5365C30.1091 31.475 31.0341 32.3672 32.0344 33.1941C32.7294 33.7686 32.9684 34.7256 32.6157 35.5212C30.5604 40.1579 30.3613 45.3434 32.0551 50.1229L35.9268 61.0466C36.3185 62.1521 37.0184 63.1123 37.9504 63.8237C38.54 64.2736 39.3865 64.1637 39.8393 63.57C40.2908 62.9785 40.1773 62.1327 39.5856 61.6811C39.0704 61.288 38.6837 60.7572 38.4672 60.146L34.5957 49.2223C33.1328 45.0953 33.3048 40.6173 35.0797 36.6135C35.92 34.7182 35.3739 32.4577 33.7517 31.1167C29.3093 27.4439 26.439 22.2043 26.439 17.7684C26.439 9.08499 37.3337 6.75804 46.0004 6.75804C54.687 6.75804 65.5618 9.09361 65.5618 17.7684C65.5618 22.2045 62.6913 27.4439 58.2491 31.1167C56.6271 32.4577 56.081 34.7182 56.921 36.6134C57.7753 38.5407 58.2579 40.5772 58.3614 42.6762C52.5426 47.3646 50.1512 54.9204 51.9933 61.9492C51.5056 62.218 50.9581 62.3645 50.3937 62.3645H45.013C44.2687 62.3645 43.6654 62.9677 43.6654 63.7121C43.6654 64.4566 44.2687 65.0598 45.013 65.0598H50.3937C51.258 65.0598 52.1013 64.8738 52.8745 64.5232C55.7232 71.198 62.3517 75.8884 70.0556 75.8884C80.3502 75.8884 88.7256 67.5132 88.7256 57.2184C88.7256 46.9236 80.3502 38.5484 70.0556 38.5484C66.735 38.5484 63.6147 39.4208 60.9101 40.9469C60.6657 39.0788 60.1563 37.2615 59.3849 35.521C59.0325 34.7259 59.2715 33.7689 59.9665 33.1945V33.1945ZM16.89 31.4835C13.8449 32.4065 9.85836 30.9611 8.11468 28.2896C6.07308 25.1612 8.24334 22.3259 12.1776 22.3259C14.746 22.3259 17.5554 23.6315 18.9629 25.7885C20.54 28.2055 19.6459 30.6479 16.89 31.4835ZM27.4714 28.2933C25.9587 28.7438 24.1321 29.0259 22.3944 28.8383C22.5719 27.3422 22.1736 25.7765 21.2198 24.3152C19.3773 21.4922 15.8461 19.6955 12.3778 19.6319C10.1559 16.8061 9.7218 13.7126 11.3566 11.9679C13.888 9.26629 19.6698 10.5663 24.6669 13.1718C24.0588 14.5656 23.7435 16.1016 23.7435 17.7685C23.7438 21.2252 25.1023 24.9481 27.4714 28.2933V28.2933ZM26.0499 10.8513C17.5556 6.31907 11.8967 7.45002 9.39028 10.125C7.04393 12.6288 7.09586 16.4367 9.37051 20.0437C7.63941 20.5801 6.21288 21.6217 5.39225 23.0693C1.41219 17.0762 2.09787 10.6193 5.75378 6.71725C8.29545 4.00506 11.9788 2.80709 15.7149 2.80709C20.0676 2.80709 25.0081 4.39354 30.1209 7.41713C28.4473 8.37432 27.0817 9.52414 26.0499 10.8513V10.8513ZM83.8864 28.2896C82.1451 30.9577 78.1595 32.4085 75.1111 31.4835C72.3491 30.646 71.4645 28.2001 73.0382 25.7885C74.4459 23.6313 77.2551 22.3259 79.8235 22.3259C83.7513 22.3259 85.9306 25.1571 83.8864 28.2896ZM68.2573 17.7687C68.2573 16.1018 67.9419 14.5658 67.3339 13.172C72.331 10.5667 78.1126 9.26647 80.6442 11.9679C82.2791 13.7126 81.8448 16.8061 79.6232 19.6319C76.1581 19.6953 72.6249 21.49 70.7812 24.3152C69.8276 25.7765 69.429 27.3422 69.6066 28.8383C67.8686 29.0259 66.0423 28.7438 64.5295 28.2933C66.8989 24.9483 68.2573 21.2253 68.2573 17.7687V17.7687ZM70.0558 41.2441C78.8642 41.2441 86.0305 48.4103 86.0305 57.2188C86.0305 66.0272 78.8642 73.1935 70.0558 73.1935C61.2472 73.1935 54.0809 66.0272 54.0809 57.2188C54.0809 48.4103 61.2472 41.2441 70.0558 41.2441Z" fill="#15A2DE"/>
</svg>
