<svg width="88" height="116" viewBox="0 0 88 116" fill="none" xmlns="http://www.w3.org/2000/svg">
<path d="M80.2498 97.875H72.7728V93.6836C72.7728 89.2962 71.1541 85.1064 68.2661 81.8663C68.6301 81.5362 68.9874 81.1959 69.3375 80.8459C74.9129 75.2702 77.9838 67.8809 77.9838 60.0391C77.9838 56.118 77.2191 52.3136 75.7118 48.7201C75.8865 47.9312 75.9812 47.1126 75.9812 46.2721C75.9812 42.9038 74.502 39.8762 72.1609 37.7993L72.8456 36.6133C74.3223 34.0554 73.941 30.9275 72.1251 28.7992L74.8896 24.0108C75.2802 24.0096 75.6735 23.9582 76.0614 23.8542C77.232 23.5407 78.2094 22.7916 78.8132 21.7456L82.2116 15.8593C82.8374 14.7756 82.4661 13.39 81.3824 12.7645L59.7994 0.303543C59.279 0.00289542 58.6601 -0.0782138 58.0803 0.0772078C57.4996 0.232856 57.005 0.612347 56.7046 1.13276L53.3062 7.01907C52.4699 8.46771 52.5307 10.1891 53.3091 11.5451L50.5428 16.3362C49.5597 16.1543 48.5391 16.1923 47.5427 16.4595C45.7854 16.9303 44.3191 18.0531 43.414 19.6209L30.9531 41.2041C30.0478 42.7719 29.8085 44.603 30.2793 46.3602C30.5464 47.3571 31.0238 48.2599 31.6727 49.0203L29.2131 53.2803C28.6091 54.3264 28.4494 55.5473 28.7632 56.7182C29.077 57.8888 29.8257 58.8662 30.8718 59.47L44.6064 67.3997C45.3183 67.8107 46.0961 68.006 46.8643 68.006C48.4315 68.006 49.9578 67.1933 50.7961 65.7412L53.2566 61.4794C53.6587 61.5537 54.067 61.5936 54.4777 61.5936C55.0702 61.5936 55.6674 61.5156 56.256 61.3577C58.0132 60.8869 59.4795 59.7641 60.3847 58.1963L61.0668 57.0147C62.0571 57.3462 63.1073 57.5449 64.1972 57.5884C64.3243 58.397 64.39 59.2165 64.39 60.0394C64.39 64.2509 62.7334 68.2266 59.7258 71.2345C56.7182 74.2423 52.7423 75.8985 48.5307 75.8985H40.6006C39.3495 75.8985 38.335 76.9128 38.335 78.1641C38.335 79.4154 39.3495 80.4297 40.6006 80.4297H48.5307C49.78 80.4297 50.7963 81.4461 50.7963 82.6953C50.7963 83.9446 49.78 84.961 48.5307 84.961H12.2817C11.0324 84.961 10.0161 83.9446 10.0161 82.6953C10.0161 81.4461 11.0324 80.4297 12.2817 80.4297H20.21C21.4611 80.4297 22.4756 79.4154 22.4756 78.1641C22.4756 76.9128 21.4611 75.8985 20.21 75.8985H12.2817C8.53389 75.8985 5.48482 78.9475 5.48482 82.6953C5.48482 86.4431 8.53389 89.4922 12.2817 89.4922H18.0096V97.875H7.74999C4.0022 97.875 0.953125 100.924 0.953125 104.672V113.734C0.953125 114.986 1.96767 116 3.21875 116H84.7811C86.0322 116 87.0467 114.986 87.0467 113.734V104.672C87.0467 100.924 83.9976 97.875 80.2498 97.875ZM68.2416 93.6836V97.875H63.7104V93.6836C63.7104 90.9707 62.4652 88.5436 60.5167 86.9425C61.9575 86.2968 63.347 85.5321 64.6748 84.6549C66.9563 87.1001 68.2416 90.3139 68.2416 93.6836ZM48.5307 89.4922H54.9877C57.2989 89.4922 59.1791 91.3724 59.1791 93.6836V97.875H42.9312V89.4922H48.5307ZM64.6531 53.0687C60.9053 53.0687 57.8562 50.0196 57.8562 46.2719C57.8562 42.5241 60.9053 39.475 64.6531 39.475C68.4009 39.475 71.4499 42.5241 71.4499 46.2719C71.4499 50.0196 68.4009 53.0687 64.6531 53.0687ZM54.6608 18.2661L56.9266 14.3416L70.6615 22.2712L68.3957 26.1957L54.6608 18.2661ZM59.4959 5.36041L77.1545 15.5557L74.8892 19.4798L57.2302 9.28446L59.4959 5.36041ZM33.1374 55.5459L35.4032 51.6217L49.1379 59.5513L46.8723 63.4756L33.1374 55.5459ZM56.4606 55.9306C56.1606 56.4504 55.6715 56.8233 55.0833 56.981C54.4956 57.1385 53.8857 57.0601 53.3658 56.7599L35.7089 46.5657C35.7082 46.5653 35.7077 46.5648 35.7071 46.5646C35.7068 46.5643 35.7064 46.5643 35.7059 46.5641C35.1866 46.2639 34.814 45.7752 34.6565 45.1875C34.499 44.5996 34.5774 43.9895 34.8776 43.4697L47.3385 21.8865C47.6385 21.3668 48.1277 20.9939 48.7158 20.8362C49.3033 20.6787 49.9134 20.7571 50.4334 21.0573L68.0923 31.2526C69.1739 31.8772 69.5461 33.2656 68.9215 34.3474L68.2396 35.5287C67.1115 35.1511 65.9067 34.9435 64.6533 34.9435C58.407 34.9435 53.3252 40.0253 53.3252 46.2716C53.3252 49.6399 54.8044 52.6677 57.1455 54.7444L56.4606 55.9306ZM54.5394 79.5232C57.6661 78.5549 60.538 76.8303 62.9301 74.4385C66.7936 70.5749 68.9213 65.4612 68.9213 60.0394C68.9213 58.9729 68.8356 57.9106 68.6696 56.862C70.2231 56.2709 71.6133 55.3477 72.7543 54.1791C73.218 56.0849 73.4525 58.044 73.4525 60.0391C73.4525 66.6706 70.8532 72.9219 66.1332 77.6419C63.0363 80.7387 59.2802 82.9226 55.19 84.0583C55.28 83.6179 55.3273 83.162 55.3273 82.6953C55.3276 81.5503 55.0416 80.4709 54.5394 79.5232ZM22.5409 89.4922H38.4V97.875H22.5409V89.4922ZM82.5155 111.469H5.48437V104.672C5.48437 103.423 6.50072 102.406 7.74999 102.406H80.2498C81.4991 102.406 82.5155 103.423 82.5155 104.672V111.469Z" fill="#15A2DE"/>
<path d="M32.6728 78.1641C32.6728 76.9128 31.6582 75.8984 30.4072 75.8984H30.4053C29.1543 75.8984 28.1406 76.9128 28.1406 78.1641C28.1406 79.4154 29.1559 80.4297 30.4072 80.4297C31.6585 80.4297 32.6728 79.4154 32.6728 78.1641Z" fill="#15A2DE"/>
</svg>
