<svg width="58" height="92" viewBox="0 0 58 92" fill="none" xmlns="http://www.w3.org/2000/svg">
<path d="M47.0828 65.682C46.5603 65.8878 46.0219 66.0937 45.4993 66.3154C42.7916 67.4396 40.258 66.9646 38.2629 64.8269C37.9937 64.5419 37.9778 63.7976 38.152 63.3859C39.783 59.2847 41.6198 55.2627 43.0925 51.114C45.151 45.3026 46.3861 39.2854 46.3861 33.0782C46.3861 24.6382 43.6625 17.1326 38.8487 10.1969C35.9826 6.0799 32.2456 3.43549 27.5585 2.26372C21.3038 0.696078 16.4742 3.30881 12.753 8.20176C9.30105 12.7463 7.82842 18.051 7.49589 23.6723C7.10002 30.2913 8.24012 36.6727 10.9479 42.7532C12.183 45.5085 13.3864 48.2321 15.3499 50.5914C17.0284 52.6183 15.825 55.1202 12.8005 56.2286C12.753 56.8462 12.6897 57.4954 12.6264 58.1288C15.73 59.7439 20.4804 58.9047 23.489 56.2128C26.7351 53.315 28.0336 48.5012 26.5926 44.6692C24.8983 40.1405 21.1613 37.3852 16.3634 37.3219C16.6642 37.9395 16.9176 38.4778 17.1868 38.9845C19.0711 42.3732 21.4622 45.3501 24.3758 47.8995C24.8508 48.3112 25.3892 48.7071 25.6584 49.2455C25.9592 49.8789 26.3234 50.8448 26.0542 51.2882C25.7692 51.7632 24.6291 52.1432 24.0907 51.9374C22.5389 51.3515 21.1455 50.3856 19.6412 49.7047C18.1369 49.008 16.5534 48.4696 15.0174 47.852C14.6057 47.6937 14.0673 47.5195 13.8931 47.2028C8.60432 37.3694 6.32411 27.1085 9.63358 16.2142C11.5496 9.89608 16.1417 5.85821 22.3806 3.92637C27.416 2.37456 31.7706 4.19556 35.4443 7.67921C40.7331 12.683 43.5358 19.0486 44.9768 26.0634C46.1644 31.8589 45.6894 37.6228 44.4226 43.3549C42.1107 53.9326 37.7878 63.6709 31.9131 72.7443C31.5489 73.2985 31.3747 74.0586 31.3589 74.7236C31.153 80.915 28.7937 86.0455 23.679 89.64C17.4085 94.0579 10.4253 92.3636 6.65665 85.6654C4.20226 81.3109 3.2205 76.5129 2.60294 71.6358C1.55785 63.1484 1.74787 54.661 2.55544 46.1735C2.79296 43.7191 2.68212 43.4658 0.876953 42.7057C1.36783 40.9322 1.87454 39.1587 2.34959 37.3536C3.23633 33.9491 3.37885 30.5288 2.60294 27.0768C2.50793 26.6809 2.60294 26.1267 2.82463 25.7942C3.44219 24.9074 4.18642 24.0999 4.96232 23.1814C5.0415 36.6252 7.25837 40.3622 10.837 48.3746C9.55441 49.2296 8.74683 47.947 7.40088 47.567C8.20845 48.6596 8.84184 49.5463 9.44356 50.3697C10.3303 49.8472 11.1379 49.388 11.9613 48.8971C10.9479 46.7119 9.7761 44.5584 8.92102 42.294C4.89899 31.5105 4.12308 20.6796 9.60191 10.0861C12.1196 5.22482 15.9042 1.63033 21.5097 0.458557C24.9775 -0.269843 28.2869 0.379383 31.4697 1.83618C31.8656 2.01036 32.2456 2.23205 32.6257 2.42207C36.0618 4.14806 38.8646 6.8083 41.9207 9.041C48.8405 14.0923 52.0708 21.6138 53.8918 29.8004C54.0976 30.7346 54.2718 31.6847 54.4302 32.6348C54.541 33.2999 54.6202 33.9649 54.731 34.7408C52.245 35.3425 51.8649 37.116 52.0866 39.3804C52.34 41.9615 52.4666 44.5584 52.4508 47.1395C52.435 49.1188 52.9575 50.5281 55.2852 50.9873C54.7944 54.9618 54.3351 58.873 53.7968 62.7525C53.7651 63.0376 53.29 63.4176 52.9575 63.4809C51.9283 63.7185 50.8515 63.7185 49.8539 64.051C49.0622 64.3202 48.3971 64.9377 47.6845 65.3969C47.4945 65.4919 47.2887 65.587 47.0828 65.682ZM29.1104 71.0024C29.3162 70.6224 29.5221 70.2582 29.6962 69.8623C32.9265 62.515 35.7135 55.0252 37.5186 47.1711C39.0388 40.568 39.8305 33.9333 38.9596 27.1876C38.3262 22.2314 36.7269 17.6709 33.1166 13.9973C27.8594 8.6293 17.2976 8.45511 14.2098 18.3043C12.5788 23.514 13.2597 28.6444 14.8907 33.7274C15.2866 34.9625 15.7616 35.5167 17.2184 35.6276C22.5231 36.0076 26.2601 38.8737 28.0653 43.7825C29.7754 48.4537 28.9045 52.9191 25.4209 56.6086C21.9055 60.3456 17.5035 61.4382 12.6422 59.9814C11.1379 59.5381 10.5362 59.9814 9.95028 61.0899C8.11344 64.6369 8.71517 68.3105 9.33272 72.0159C9.76026 71.2558 10.0611 70.4482 10.4095 69.6723C11.6921 66.8062 13.1172 64.0352 15.8091 62.1825C17.9785 60.694 20.2746 60.5673 22.3964 62.0875C23.7424 63.0376 24.9458 64.2885 25.9276 65.6186C27.1468 67.2971 28.0336 69.1656 29.1104 71.0024Z" fill="#15A2DE"/>
<path d="M52.7981 42.865C52.7981 41.234 52.7822 39.603 52.7981 37.972C52.8139 36.6103 53.5265 35.7552 54.6666 35.6602C55.8858 35.5652 56.8993 36.3411 56.9785 37.7029C57.1685 41.1865 57.2793 44.686 57.3268 48.1696C57.3426 49.4839 56.4559 50.2282 55.2049 50.149C53.9857 50.0856 53.2098 49.4523 53.1939 48.1696C53.1623 46.3961 53.1781 44.6385 53.1781 42.865C53.0514 42.865 52.9247 42.865 52.7981 42.865Z" fill="#15A2DE"/>
<path d="M47.0814 65.6829C47.2872 65.5879 47.4931 65.4929 47.6989 65.382C49.4566 64.812 51.1984 64.2419 52.9561 63.6719C53.0036 63.8302 53.0669 64.0044 53.1144 64.1628C50.4383 66.0788 47.5089 67.2664 44.1836 67.3455C45.1495 66.8072 46.1154 66.2371 47.0814 65.6829Z" fill="#15A2DE"/>
</svg>
