<svg width="92" height="92" viewBox="0 0 92 92" fill="none" xmlns="http://www.w3.org/2000/svg">
<path d="M65.5841 35.123H65.5586C64.5664 35.123 63.7617 35.9275 63.7617 36.9199C63.7617 37.9123 64.5662 38.7168 65.5586 38.7168H65.5841C66.5763 38.7168 67.381 37.9123 67.381 36.9199C67.381 35.9275 66.5763 35.123 65.5841 35.123Z" fill="#15A2DE"/>
<path d="M25.7942 43.8688C25.5913 42.8976 24.6399 42.2752 23.6676 42.4777L23.6081 42.4906C22.6403 42.7105 22.0321 43.6737 22.252 44.6415C22.4416 45.4752 23.181 46.0409 24.0009 46.0409C24.1326 46.0409 24.2666 46.0263 24.4005 45.9959L24.0354 44.2366L24.4032 45.9954C25.3744 45.7924 25.9974 44.8402 25.7942 43.8688Z" fill="#15A2DE"/>
<path d="M74.5557 63.3461C75.2295 62.6492 75.8372 61.8624 76.3644 60.9902C78.8768 56.8335 78.7778 51.9775 76.2395 48.1C80.0496 45.5161 82.3406 41.3057 82.3406 36.6746C82.3406 31.4274 79.4008 26.744 74.7275 24.3481C75.3389 21.1436 74.6304 17.8467 72.6968 15.096C70.6992 12.2543 67.6992 10.4093 64.292 9.87559C64.1073 7.55026 63.1553 5.36365 61.5273 3.58421C59.4437 1.30632 56.4521 0 53.3199 0C49.4711 0 46.0795 1.939 44.1119 4.86664C42.1443 1.939 38.7527 0 34.9037 0C31.7715 0 28.7801 1.30632 26.6963 3.58385C25.0681 5.36329 24.1163 7.54972 23.9315 9.87541C20.5242 10.4091 17.5244 12.2541 15.5266 15.096C13.593 17.8467 12.8845 21.1437 13.496 24.3481C8.82267 26.744 5.88281 31.4276 5.88281 36.6746C5.88281 41.3057 8.17382 45.5163 11.9839 48.1C9.44582 51.9775 9.34646 56.8335 11.859 60.9902C14.4801 65.3268 19.0815 67.5624 23.9854 67.0402C24.2597 69.1783 25.1887 71.2145 26.6708 72.8457C28.7564 75.1412 31.7572 76.4578 34.9035 76.4578C38.7524 76.4578 42.144 74.5188 44.1115 71.5914C46.0791 74.519 49.4707 76.4578 53.3196 76.4578C54.6902 76.4578 56.033 76.2077 57.2847 75.736C57.212 76.323 57.1701 76.9196 57.1701 77.526C57.1701 85.507 63.6633 92 71.6442 92C79.6252 92 86.1184 85.507 86.1184 77.526C86.1185 70.5418 81.1462 64.6973 74.5557 63.3461ZM42.315 65.723C42.3148 69.6606 38.9903 72.8641 34.9037 72.8641C32.7677 72.8641 30.7367 71.9766 29.3307 70.4293C28.24 69.2288 27.6127 67.757 27.5087 66.1979C31.1987 64.7902 32.1354 62.3285 32.8371 60.4819C33.4394 58.8968 33.7709 58.0236 35.5771 57.5397C36.5358 57.2829 37.1046 56.2975 36.8477 55.3389C36.5909 54.3804 35.6052 53.811 34.6471 54.0683C31.0647 55.0282 30.1847 57.3443 29.4775 59.2054C28.786 61.0249 28.2867 62.3396 25.271 63.1477C25.2689 63.1482 25.2667 63.1491 25.2645 63.1498C25.2628 63.1504 25.2608 63.1506 25.259 63.1509C20.2626 64.5279 16.5753 61.8455 14.9345 59.1313C13.3008 56.4283 12.7192 52.296 15.9866 48.8046C16.378 48.3862 16.5465 47.8066 16.4403 47.2436C16.3339 46.6808 15.9658 46.2023 15.4488 45.9554C11.7649 44.1958 9.47637 40.6398 9.47637 36.6748C9.47637 32.3975 12.1375 28.6185 16.2561 27.0472C17.1558 26.704 17.625 25.7126 17.3201 24.7993C16.4561 22.2116 16.8741 19.4283 18.4665 17.1628C20.1356 14.7884 22.7922 13.3858 25.7571 13.3126C29.337 13.32 30.1651 14.8173 31.2122 16.7121C32.1412 18.3936 33.4137 20.6967 36.8019 20.6967C37.7941 20.6967 38.5987 19.8922 38.5987 18.8998C38.5987 17.9074 37.7941 17.1029 36.8019 17.1029C35.651 17.1029 35.311 16.6996 34.3576 14.9742C33.3343 13.122 31.8456 10.4337 27.5505 9.83947C27.7322 8.42803 28.3465 7.10428 29.3476 6.00998C30.7527 4.47438 32.7776 3.59374 34.9037 3.59374C38.9901 3.59374 42.3148 6.79737 42.3148 10.735V38.3581C37.2252 37.9249 35.9478 35.5839 34.4931 32.9138C33.0944 30.3462 31.3534 27.1509 26.1447 26.5999C25.1576 26.4961 24.2732 27.211 24.1688 28.1979C24.0644 29.1847 24.7798 30.0693 25.7668 30.1739C29.1 30.5263 29.9901 32.1602 31.3374 34.6332C31.835 35.5465 32.367 36.5217 33.0619 37.4545C31.9778 38.6012 30.2893 39.7981 28.3656 40.7517C27.4767 41.1925 27.1132 42.2706 27.5539 43.1597C27.8675 43.7924 28.5038 44.1589 29.1652 44.1589C29.4333 44.1589 29.7055 44.0987 29.9619 43.9715C32.2828 42.821 34.2649 41.4083 35.6537 39.9433C37.2128 40.9797 39.3211 41.7423 42.315 41.9592V65.723ZM59.6607 69.4175C59.6174 69.4813 59.5768 69.5472 59.5346 69.6119C59.3427 69.8953 59.1294 70.169 58.8929 70.4291C57.4871 71.9766 55.4557 72.8641 53.3198 72.8641C49.2333 72.8641 45.9086 69.6606 45.9086 65.723V51.2456C45.9086 47.4697 47.9144 45.5869 49.7914 45.0838C52.1218 44.4594 54.5549 45.6616 55.9896 48.1465C56.4858 49.006 57.5848 49.3005 58.4441 48.8042C59.3035 48.3081 59.598 47.2091 59.1017 46.3497C56.8294 42.414 52.8098 40.5549 48.8612 41.6124C47.7608 41.9073 46.7687 42.4109 45.9084 43.0853V29.3341C50.4534 29.66 51.7779 31.2745 53.4046 33.2629C54.765 34.9263 56.3072 36.8115 59.6126 37.8627C59.7937 37.9202 59.977 37.9477 60.1576 37.9477C60.9191 37.9477 61.6263 37.4595 61.8693 36.6949C62.1701 35.7492 61.6474 34.7387 60.7015 34.4379C58.4132 33.7101 57.381 32.4484 56.1861 30.9875C54.3181 28.7039 52.2179 26.1423 45.9084 25.7362V10.735C45.9084 6.79737 49.2331 3.59374 53.3196 3.59374C55.4458 3.59374 57.4709 4.47438 58.8757 6.00998C59.8767 7.1041 60.4911 8.42803 60.6725 9.83929C56.3775 10.4335 54.8888 13.1218 53.8655 14.974C52.9121 16.6996 52.5723 17.1029 51.4212 17.1029C50.429 17.1029 49.6243 17.9074 49.6243 18.8998C49.6243 19.8922 50.429 20.6967 51.4212 20.6967C54.8092 20.6967 56.0819 18.3936 57.0109 16.7121C58.0577 14.8173 58.8857 13.32 62.4658 13.3126C65.4307 13.3859 68.0873 14.7884 69.7566 17.1628C71.349 19.4281 71.767 22.2114 70.9028 24.7993C70.5979 25.7126 71.0671 26.704 71.9668 27.0472C76.0854 28.6184 78.7465 32.3975 78.7465 36.6748C78.7465 40.6396 76.458 44.1958 72.7741 45.9554C72.2571 46.2023 71.889 46.6808 71.7826 47.2436C71.6764 47.8066 71.8451 48.3862 72.2363 48.8046C75.5039 52.296 74.9223 56.4283 73.2884 59.1313C71.6478 61.8457 67.9583 64.5273 62.9639 63.1509C62.9621 63.1504 62.9603 63.1502 62.9585 63.1498C62.9564 63.1493 62.9542 63.1484 62.9521 63.1477C59.9364 62.3396 59.4368 61.0249 58.7456 59.2054C58.0383 57.3443 57.1584 55.028 53.576 54.0683C52.6174 53.8112 51.6323 54.3804 51.3754 55.3389C51.1184 56.2975 51.6873 57.2827 52.6459 57.5397C54.4522 58.0236 54.7839 58.8968 55.3862 60.482C56.0878 62.3289 57.0247 64.7904 60.7144 66.1981C60.638 67.3428 60.2778 68.4396 59.6607 69.4175ZM71.6444 88.4061C65.6448 88.4061 60.764 83.5253 60.764 77.5259C60.764 75.3319 61.4188 73.289 62.5404 71.5782C62.5706 71.533 62.5993 71.4868 62.6288 71.4411C64.5865 68.5498 67.8972 66.6455 71.6444 66.6455C77.644 66.6455 82.5248 71.5263 82.5248 77.5257C82.5248 83.5251 77.644 88.4061 71.6444 88.4061Z" fill="#15A2DE"/>
<path d="M75.1585 78.4501H71.5117V73.1035C71.5117 72.1111 70.7071 71.3066 69.7148 71.3066C68.7226 71.3066 67.918 72.1111 67.918 73.1035V80.247C67.918 81.2394 68.7226 82.0438 69.7148 82.0438H75.1585C76.1507 82.0438 76.9553 81.2394 76.9553 80.247C76.9553 79.2546 76.1509 78.4501 75.1585 78.4501Z" fill="#15A2DE"/>
</svg>
