<svg width="92" height="92" viewBox="0 0 92 92" fill="none" xmlns="http://www.w3.org/2000/svg">
<path d="M90.9022 0.00084453C92.4893 1.08087 92.5976 2.10689 91.2268 3.49292C85.1306 9.59505 79.0163 15.6972 72.9021 21.7813C72.3971 22.2853 72.1626 22.7713 72.1806 23.4914C72.2167 27.7754 72.1806 32.0595 72.2167 36.3256C72.2167 37.2977 71.9101 38.0177 71.2247 38.7017C59.2307 50.6539 47.2547 62.6242 35.2787 74.5765C35.0262 74.8285 34.7015 75.0085 34.3047 75.2965C35.2426 76.2145 36.0182 76.9525 36.7757 77.7085C37.6775 78.6266 37.7496 79.7426 36.9921 80.4806C36.1985 81.2546 35.1705 81.1646 34.2146 80.2106C31.7797 77.7805 29.3448 75.3505 26.9821 72.9924C22.8879 77.0785 18.8117 81.1466 14.6814 85.2687C15.7456 86.3307 16.954 87.4647 18.0902 88.7068C18.487 89.1388 18.8297 89.7868 18.8297 90.3448C18.8478 91.6768 17.2606 92.4329 16.1243 91.7128C15.8177 91.5328 15.5652 91.2628 15.3127 91.0108C10.5331 86.2227 5.73549 81.4346 0.955916 76.6465C0.595193 76.2865 0.324651 75.8725 0 75.4765C0 75.1165 0 74.7565 0 74.3965C1.15431 72.7944 2.12826 72.7404 3.57116 74.1805C4.67136 75.2785 5.77157 76.3765 6.8357 77.4385C10.9299 73.3344 14.988 69.3023 19.1003 65.1803C18.9199 64.9823 18.7035 64.7482 18.487 64.5322C16.2145 62.2642 13.9419 60.0141 11.6874 57.7281C10.9479 56.9901 10.8397 56.2161 11.2726 55.46C11.6694 54.758 12.481 54.38 13.2746 54.632C13.6534 54.758 14.0321 55.01 14.3207 55.298C15.0782 56.0541 15.7997 56.8461 16.7556 57.8721C17.0442 57.4401 17.1884 57.1161 17.4049 56.8821C23.2666 51.014 29.1464 45.1458 35.0262 39.2957C36.1985 38.1257 37.2086 37.9637 38.0563 38.7917C38.8859 39.6017 38.7236 40.6997 37.5873 41.8157C35.5132 43.8858 33.421 45.9558 31.3468 48.0439C31.1304 48.2599 30.95 48.4759 30.7877 48.6379C35.0262 52.85 39.2106 57.0261 43.3228 61.1302C47.5433 56.9181 51.8719 52.616 56.3269 48.1699C55.6595 47.5579 54.8659 46.8379 54.1084 46.0818C53.1525 45.1278 53.0984 44.1018 53.91 43.3278C54.7036 42.5538 55.7136 42.6258 56.6696 43.5798C57.409 44.3178 58.1305 45.0918 58.7978 45.7758C60.5293 44.0478 62.2067 42.3918 64.0283 40.5737C63.3069 39.9077 62.4952 39.2057 61.7377 38.4497C60.8179 37.5497 60.7638 36.4336 61.5573 35.6776C62.3149 34.9576 63.379 35.0116 64.2628 35.8936C65.0203 36.6496 65.7237 37.4597 66.5894 38.3597C67.2748 37.6217 67.8339 37.0456 68.357 36.4336C68.5013 36.2716 68.5914 36.0196 68.5914 35.8036C68.5914 31.7895 68.5914 27.7754 68.5734 23.7614C68.5734 23.7074 68.5373 23.6534 68.4652 23.5094C67.2568 23.5094 65.9942 23.5094 64.7497 23.5094C62.1345 23.5094 59.5373 23.5454 56.9221 23.4914C56.1645 23.4734 55.6415 23.7254 55.1365 24.2474C53.3689 26.0654 51.5293 27.8474 49.7437 29.6655C49.2026 30.2235 48.5713 30.4935 47.7958 30.3315C46.425 30.0255 45.9922 28.3695 47.0563 27.2714C48.8599 25.4354 50.7898 23.7074 52.4852 21.7813C53.7657 20.3233 55.1906 19.8013 57.1205 19.8733C60.9802 20.0173 64.858 19.9093 68.7177 19.9273C69.367 19.9273 69.8179 19.7653 70.2868 19.2973C76.3109 13.2491 82.353 7.219 88.4132 1.18887C88.846 0.756861 89.351 0.378853 89.838 -0.0351562C90.1807 0.00084453 90.5414 0.00084453 90.9022 0.00084453ZM9.70344 80.0306C10.461 80.7866 11.2726 81.5966 12.0121 82.3346C16.0161 78.3385 20.0562 74.2885 24.0241 70.3284C23.2847 69.5544 22.473 68.7263 21.7696 67.9883C17.7295 72.0204 13.6534 76.0705 9.70344 80.0306ZM26.6935 67.5923C29.6695 64.6222 32.6093 61.7062 35.3869 58.9341C34.6835 58.1421 33.9079 57.2961 33.2586 56.5761C30.3007 59.5281 27.3789 62.4442 24.475 65.3423C25.1965 66.0623 25.9901 66.8723 26.6935 67.5923ZM28.1364 51.41C25.1965 54.344 22.2746 57.2601 19.3708 60.1581C20.1464 60.9142 20.976 61.7242 21.7516 62.4802C24.6193 59.6001 27.5592 56.6661 30.5172 53.732C29.7416 52.994 28.93 52.202 28.1364 51.41ZM38.3448 61.5802C35.4049 64.5142 32.447 67.4483 29.5973 70.3104C30.3548 71.0844 31.1665 71.9124 31.8158 72.5784C34.7376 69.6624 37.6775 66.7463 40.5633 63.8482C39.8599 63.1102 39.0663 62.3182 38.3448 61.5802Z" fill="#15A2DE"/>
<path d="M42.4751 36.1096C41.4651 36.1096 40.6534 35.2636 40.6895 34.2736C40.7076 33.3195 41.5372 32.5275 42.4931 32.5275C43.4851 32.5275 44.3148 33.3735 44.2787 34.3636C44.2426 35.3176 43.431 36.1096 42.4751 36.1096Z" fill="#15A2DE"/>
<path d="M87.89 65.0543C88.6115 66.5123 89.1886 67.8983 89.9642 69.1584C91.7678 72.0744 92.4171 75.1885 92.2187 78.6265C92.0023 82.2986 92.1646 85.9887 92.1646 89.6608C92.1646 91.3888 91.5694 92.0008 89.856 92.0008C82.9842 92.0008 76.1305 92.0008 69.2587 92.0008C67.5633 92.0008 66.9501 91.3888 66.9501 89.6608C66.9501 84.6387 66.9321 79.5986 66.9681 74.5765C66.9681 73.9464 67.1485 73.2804 67.419 72.7044C68.5012 70.4364 69.6555 68.2043 70.7737 65.9543C70.9 65.7023 71.0263 65.4323 71.1886 65.0543C70.3409 65.0543 69.6014 65.0723 68.8619 65.0543C67.7256 65.0183 66.9321 64.2622 66.9501 63.2182C66.9681 62.2282 67.7437 61.4722 68.8439 61.4722C75.9862 61.4542 83.1105 61.4542 90.2528 61.4722C91.353 61.4722 92.1285 62.2282 92.1466 63.2362C92.1646 64.2622 91.371 65.0363 90.2347 65.0723C89.5133 65.0723 88.7738 65.0543 87.89 65.0543ZM88.5033 88.3648C88.5033 84.1707 88.5033 80.0306 88.5033 75.8905C82.4972 75.8905 76.5453 75.8905 70.6114 75.8905C70.6114 80.0666 70.6114 84.1887 70.6114 88.3648C76.5814 88.3648 82.4972 88.3648 88.5033 88.3648ZM71.7116 72.1644C76.9962 72.1644 82.1546 72.1644 87.4031 72.1644C86.2307 69.8244 85.1305 67.5923 83.9942 65.3603C83.9041 65.1803 83.5614 65.0543 83.3449 65.0543C80.8379 65.0363 78.3129 65.0363 75.8058 65.0543C75.5714 65.0543 75.2106 65.2343 75.1205 65.4323C73.9661 67.6463 72.8659 69.8604 71.7116 72.1644Z" fill="#15A2DE"/>
</svg>
