<svg width="74" height="92" viewBox="0 0 74 92" fill="none" xmlns="http://www.w3.org/2000/svg">
<path d="M39.6648 92.0183C38.7286 91.4602 37.5944 91.1001 36.9102 90.3259C36.136 89.4617 35.776 88.2195 35.1458 86.9592C34.2636 86.7611 33.0214 86.5271 31.8331 86.185C29.6366 85.5369 27.8542 84.2946 26.5219 82.4042C25.3877 80.7838 24.0554 79.2895 23.1732 77.5431C20.9407 73.0602 21.3188 68.7572 24.7756 64.7603C21.0308 64.2382 17.8261 62.8699 15.7916 59.5752C15.1615 60.1693 14.6034 60.7815 13.9552 61.2856C11.3627 63.284 8.46402 63.6621 5.49338 62.3838C2.50473 61.0875 0.704338 58.711 0.488291 55.3983C0.326256 52.9858 0.380267 50.5553 0.380267 48.1247C0.362264 42.3275 0.398271 36.5842 0.362264 30.823C0.34426 28.9866 0.57831 28.3564 1.74856 28.2844C2.72078 28.2124 3.08085 28.9505 3.08085 30.859C3.08085 38.5646 3.08085 46.2523 3.06285 53.958C3.06285 55.7944 3.45894 57.4688 4.86324 58.765C6.64563 60.3854 8.71608 60.8355 10.9486 59.8993C13.2711 58.9271 14.4593 57.0727 14.4953 54.5521C14.5313 51.2934 14.5133 48.0167 14.5133 44.758C14.5133 44.4879 14.4953 44.2179 14.5313 43.9478C14.6394 43.2097 15.0715 42.7596 15.8456 42.7235C16.5658 42.7055 17.1419 43.2097 17.1779 44.0018C17.2319 44.92 17.1959 45.8382 17.1959 46.6304C17.9701 45.9282 18.7443 45.2081 19.5544 44.5239C20.1666 44.0018 20.7967 43.4797 21.4628 43.0296C22.219 42.5075 23.0112 42.6515 23.4613 43.2817C23.9114 43.9118 23.7674 44.686 23.0112 45.2261C21.1568 46.5584 19.6265 48.1427 18.4742 50.1412C15.5576 55.1823 17.772 60.5474 23.4613 61.7177C27.9263 62.6359 32.1572 61.8437 35.92 59.1251C37.6124 57.9009 38.6386 56.2085 39.1247 54.174C39.1787 53.904 39.2327 53.6519 39.3227 53.3999C39.5568 52.6437 40.0969 52.3376 40.8351 52.4637C41.6092 52.5897 42.0233 53.1658 41.8613 53.886C41.6092 55.0382 41.3572 56.2445 40.8351 57.2887C40.2949 58.369 39.4308 59.2692 38.6926 60.2594C38.5486 60.4394 38.4045 60.6014 38.2065 60.8355C42.0773 61.3036 45.8221 61.5917 49.3149 59.6292C53.7079 57.1807 56.3904 53.4539 56.6605 48.4308C56.9126 43.9838 56.7505 39.5008 56.5345 35.0539C56.4625 33.5776 55.7603 32.0472 55.0402 30.6969C54.0139 28.7885 51.9435 28.0323 49.873 28.6085C49.2789 28.7705 48.7748 29.2926 48.2707 29.6707C48.0906 29.8147 48.0006 30.0668 47.8386 30.2468C47.2805 30.913 46.5603 31.021 45.9482 30.5709C45.39 30.1388 45.264 29.4187 45.6781 28.7165C46.8844 26.628 49.2609 25.5118 51.7994 25.7819C53.7259 25.9979 55.3282 26.7901 56.7325 28.3204C56.7325 24.7916 56.7325 21.3889 56.7325 17.8961C56.4084 18.0582 56.1204 18.1662 55.8323 18.3282C53.0057 19.8406 50.0351 21.0468 46.9564 21.929C46.5063 22.055 46.0382 22.3611 45.6961 22.7032C43.3556 25.1337 41.3212 27.7983 40.421 31.129C40.2409 31.8132 40.1509 32.5333 40.0789 33.2535C39.9889 34.2437 39.4848 34.8378 38.6926 34.8378C37.8644 34.8378 37.3423 34.1897 37.3783 33.1455C37.4683 30.0308 38.7646 27.3662 40.457 24.8457C40.8531 24.2515 41.2672 23.6934 41.6452 23.1893C39.2507 23.1893 36.8922 23.1893 34.5517 23.2073C34.3537 23.2073 34.0836 23.3513 33.9576 23.5134C32.6073 25.2778 31.401 27.1322 31.0049 29.3826C30.7709 30.6969 31.0049 31.9212 31.9951 32.8574C33.7595 34.5138 35.2899 36.3142 36.064 38.6547C37.4503 38.3486 38.7466 37.9345 40.0609 37.7905C41.3932 37.6464 42.7435 37.7545 44.2018 37.7545C44.2018 36.8723 44.2018 35.9901 44.2018 35.1079C44.2018 34.7478 44.1838 34.3877 44.2378 34.0277C44.3638 33.2535 44.958 32.7854 45.6781 32.8574C46.4523 32.9474 46.8484 33.4155 46.8844 34.1717C46.9384 35.522 47.0104 36.8543 47.0104 38.2046C47.0104 38.8347 47.2625 39.2308 47.7306 39.6449C51.6374 42.9936 52.9337 49.9791 50.3591 54.174C49.729 55.1823 48.7568 55.9924 47.8206 56.7846C47.2625 57.2527 46.5423 57.1087 46.0742 56.4965C45.6241 55.9024 45.6241 55.1823 46.2362 54.7322C47.6225 53.6699 48.5767 52.3737 48.8828 50.6093C49.2609 48.3948 48.8468 46.3063 47.9106 44.3259C46.3983 41.0312 43.8597 39.8069 40.0069 40.4911C39.0167 40.6711 38.0264 40.9772 37.0722 41.3012C36.8202 41.3913 36.5141 41.7513 36.4961 42.0214C36.2261 46.0543 34.0476 49.0609 31.221 51.7075C30.5548 52.3196 29.7627 52.2656 29.2225 51.6715C28.7184 51.1134 28.8084 50.4112 29.3846 49.7451C30.3568 48.6108 31.437 47.5486 32.2652 46.3243C34.1916 43.4257 34.4257 40.401 32.4452 37.4124C30.4648 34.4057 27.6562 33.1995 24.0914 33.7396C21.7689 34.0817 19.6625 34.9819 17.682 36.2061C17.448 36.3502 17.2499 36.7462 17.2319 37.0523C17.1599 37.8265 17.2319 38.6007 17.2139 39.3928C17.1959 40.329 16.6918 40.8871 15.9176 40.9232C15.1075 40.9412 14.5493 40.365 14.5313 39.3928C14.5133 36.6742 14.5313 33.9376 14.5313 31.219C14.5313 26.574 14.5133 21.929 14.5493 17.284C14.5493 16.5639 14.3333 16.1138 13.7932 15.6096C12.821 14.6914 11.9388 13.6652 11.1106 12.603C10.5885 11.9368 10.8045 11.1267 11.4167 10.7126C12.0288 10.2985 12.767 10.3705 13.2351 11.0547C15.3775 14.2774 18.7623 15.7357 22.057 17.284C27.6742 19.9306 33.5975 20.9748 39.7908 20.5247C44.3818 20.1826 48.7208 18.8503 52.8437 16.8519C55.1302 15.7537 57.4527 14.6554 59.2711 12.801C59.7932 12.2609 60.2073 11.6488 60.6934 11.0727C61.2695 10.4065 61.9717 10.2805 62.5838 10.7126C63.1779 11.1447 63.358 11.9548 62.8358 12.621C61.9897 13.6832 61.0715 14.7275 60.0812 15.6637C59.6311 16.0958 59.4331 16.4918 59.4331 17.104C59.4511 27.0781 59.4871 37.0523 59.4331 47.0265C59.3971 53.886 56.2464 58.9811 50.1971 62.2038C46.9564 63.9322 43.4636 64.0582 39.8809 63.7341C36.6582 63.4641 33.4174 63.356 30.2848 64.4903C24.9916 66.3987 22.9392 71.8359 25.8018 76.6609C26.828 78.4073 28.0883 80.0457 29.4026 81.576C30.7889 83.1964 32.7693 83.8085 34.8218 84.0966C35.4339 84.1866 36.082 84.2226 36.6942 84.2766C37.8464 84.3846 38.2965 84.8347 38.2605 86.005C38.2425 87.0492 38.2605 88.0394 39.1787 88.7596C39.8448 89.2817 40.565 89.4617 41.3572 89.1377C42.2214 88.7956 42.8515 88.1834 42.9235 87.2292C43.1216 84.1686 42.7615 81.1979 41.4472 78.3893C41.3212 78.1193 40.8891 77.8672 40.583 77.8132C38.2425 77.3991 35.992 76.6969 33.8855 75.5987C33.7055 75.5087 33.5075 75.4007 33.3274 75.3106C32.3552 74.7345 32.0311 74.0144 32.4272 73.2762C32.8233 72.52 33.5975 72.394 34.6057 72.9521C39.1607 75.4727 43.9677 75.8148 48.9548 74.6625C52.1955 73.9063 55.2202 72.6821 58.0108 70.8817C58.1368 70.8097 58.2628 70.7196 58.3889 70.6476C59.1991 70.2155 59.9552 70.3596 60.3693 71.0077C60.7834 71.6919 60.6214 72.466 59.8112 72.9161C57.9208 73.9423 56.0484 75.0046 54.0679 75.8508C50.9893 77.165 47.7306 77.7772 44.3638 77.9752C44.6879 79.3435 45.138 80.6578 45.3 81.9901C45.5161 83.7365 45.6781 85.5189 45.6061 87.2652C45.5161 89.4437 44.2738 90.92 42.2214 91.6942C41.9693 91.7842 41.7353 91.8923 41.4832 91.9823C40.8711 92.0183 40.2769 92.0183 39.6648 92.0183ZM31.0229 22.7932C26.0719 21.983 21.6069 20.2006 17.2499 17.8601C17.2499 20.2006 17.2499 22.3791 17.2499 24.5576C19.3744 25.1337 21.1748 24.6116 22.8131 23.2793C23.6053 22.6312 24.3615 22.7032 24.8836 23.3333C25.3877 23.9455 25.2977 24.8277 24.4875 25.3498C23.4253 26.0339 22.309 26.7541 21.1028 27.1142C19.8785 27.4742 18.5462 27.4382 17.2499 27.5823C17.2499 29.3646 17.2499 31.2551 17.2499 33.2715C20.7067 31.4711 24.2355 30.4269 28.1783 31.147C27.9983 27.9783 29.3126 25.4218 31.0229 22.7932Z" fill="#15A2DE"/>
<path d="M73.5663 24.108C73.5663 27.4927 73.5663 30.8775 73.5663 34.2622C73.5663 34.4963 73.5483 34.7483 73.5123 34.9824C73.4043 35.7565 72.9362 36.1526 72.162 36.1346C71.4239 36.1166 71.0098 35.7025 70.9198 34.9824C70.8838 34.6583 70.8838 34.3342 70.8838 33.9921C70.8838 27.9968 70.8838 22.0195 70.8838 16.0242C70.8838 12.5135 69.8395 9.3988 67.427 6.75222C63.7542 2.70134 57.3088 1.53109 52.4297 4.05163C50.0712 5.2759 47.7487 6.60819 45.2822 7.5804C38.7108 10.155 32.2654 9.54283 25.982 6.46416C24.0016 5.49195 22.1292 4.24968 20.0767 3.47551C12.299 0.522867 3.60313 6.23011 3.18904 14.5299C3.02701 17.7526 3.11703 20.9933 3.08102 24.234C3.08102 24.5941 3.08102 24.9542 3.02701 25.3143C2.93699 25.9984 2.48689 26.3765 1.82075 26.4125C1.10059 26.4485 0.632488 26.0884 0.470453 25.3683C0.434445 25.1702 0.398438 24.9542 0.398438 24.7381C0.416441 21.2634 0.36243 17.7886 0.488457 14.3139C0.704504 8.40858 5.15147 2.71934 10.7867 0.864941C15.5757 -0.701399 20.0407 -0.0712625 24.3076 2.5033C27.0442 4.14165 29.9249 5.47394 33.0575 6.08608C37.9906 7.05829 42.6356 6.15809 47.0646 3.92561C49.117 2.89938 51.0975 1.67512 53.2399 0.864941C60.0094 -1.69161 68.3632 1.67512 71.6759 8.08451C72.9722 10.5871 73.5483 13.2336 73.5663 16.0242C73.5663 18.7248 73.5663 21.4254 73.5663 24.108Z" fill="#15A2DE"/>
<path d="M73.5836 44.9388C73.7276 49.7459 73.0975 54.4269 71.2611 58.9099C69.5507 63.0688 67.0482 66.6876 63.7895 69.7662C63.1053 70.4144 62.3672 70.4324 61.791 69.8743C61.2329 69.3341 61.2869 68.596 61.8631 67.8758C63.5014 65.8594 65.3198 63.951 66.7241 61.7905C69.2447 57.9197 70.5589 53.5627 70.757 48.9357C70.883 46.0731 70.847 43.1925 70.883 40.3118C70.883 39.9878 70.883 39.6457 70.919 39.3216C71.009 38.5474 71.4952 38.1153 72.2333 38.1334C72.9355 38.1334 73.4576 38.5474 73.4936 39.2856C73.5656 40.3838 73.5476 41.5001 73.5656 42.5983C73.5836 43.3725 73.5836 44.1467 73.5836 44.9388Z" fill="#15A2DE"/>
</svg>
