<svg width="92" height="92" viewBox="0 0 92 92" fill="none" xmlns="http://www.w3.org/2000/svg">
<path d="M47.4843 5.93555H44.5166V8.90329H41.5488V11.871H44.5166V14.8388H47.4843V11.871H50.4521V8.90329H47.4843V5.93555Z" fill="#15A2DE"/>
<path d="M50.4516 29.6774V23.7419H53.4194C55.0561 23.7419 56.3871 22.4109 56.3871 20.7742V19.2903H64.4962L68.6515 25.5214L74.308 9.96541L77.667 17.8065H92V14.8387H79.6233L74.0805 1.90556L67.8661 18.9947L66.0844 16.3226H56.3871V2.96774C56.3871 1.33099 55.0561 0 53.4194 0H38.5806C36.9439 0 35.6129 1.33099 35.6129 2.96774V10.3871H22.7638L19.4034 18.2281L13.7483 2.67213L9.59299 8.90323H0V11.871H11.1812L12.9614 9.19884L19.1758 26.288L24.7201 13.3548H35.6129V20.7742C35.6129 22.4109 36.9439 23.7419 38.5806 23.7419H41.5484V29.6774H44.5161V38.5806H37.0968C34.5754 38.5806 32.0518 39.1755 29.7977 40.3036L28.7681 40.818C27.8197 37.8134 25.0389 35.6129 21.7241 35.6129H16.3226C14.646 35.6129 13.1143 36.1933 11.871 37.1352V31.1613C11.871 28.7073 9.87339 26.7097 7.41935 26.7097C4.96532 26.7097 2.96774 28.7073 2.96774 31.1613V53.4194C1.33099 53.4194 0 54.7503 0 56.3871V59.3548C0 60.9916 1.33099 62.3226 2.96774 62.3226H7.41935V78.6618C5.56017 80.0609 4.45161 82.2389 4.45161 84.5806C4.45161 88.6714 7.78018 92 11.871 92C15.9618 92 19.2903 88.6714 19.2903 84.5806C19.2903 82.2404 18.1702 80.0443 16.3226 78.6524V62.3226H75.6774V78.6524C73.8298 80.0428 72.7097 82.2404 72.7097 84.5806C72.7097 88.6714 76.0382 92 80.129 92C84.2198 92 87.5484 88.6714 87.5484 84.5806C87.5484 82.2404 86.4282 80.0443 84.5806 78.6524V62.3226H89.0323C90.669 62.3226 92 60.9916 92 59.3548V56.3871C92 54.7503 90.669 53.4194 89.0323 53.4194H88.9569C88.2041 45.1124 81.2093 38.5806 72.7097 38.5806H47.4839V29.6774H50.4516ZM16.3226 38.5806H21.7241C24.1781 38.5806 26.1757 40.5782 26.1757 43.0323C26.1757 45.4863 24.1781 47.4839 21.7241 47.4839H16.3226C13.8685 47.4839 11.871 45.4863 11.871 43.0323C11.871 40.5782 13.8685 38.5806 16.3226 38.5806ZM22.2581 50.4516C24.1897 50.4516 25.8221 51.6964 26.4365 53.4194H12.1441C12.7585 51.6964 14.3909 50.4516 16.3226 50.4516H22.2581ZM11.871 48.9293C11.8876 48.9424 11.9007 48.9561 11.9166 48.9677C11.9007 48.9793 11.8876 48.9931 11.871 49.0061V48.9293ZM5.93548 31.1613C5.93548 30.344 6.60062 29.6774 7.41935 29.6774C8.23809 29.6774 8.90323 30.344 8.90323 31.1613V53.4194H5.93548V31.1613ZM11.871 89.0323C9.41693 89.0323 7.41935 87.0347 7.41935 84.5806C7.41935 84.0698 7.53528 83.5851 7.69975 83.1178C8.31852 84.8299 9.94657 86.0645 11.871 86.0645C13.7939 86.0645 15.422 84.8313 16.0422 83.1192C16.2067 83.5866 16.3226 84.072 16.3226 84.5806C16.3226 87.0347 14.325 89.0323 11.871 89.0323V89.0323ZM13.3548 81.6129C13.3548 82.4302 12.6897 83.0968 11.871 83.0968C11.0522 83.0968 10.3871 82.4302 10.3871 81.6129V62.3226H13.3548V81.6129ZM80.129 89.0323C77.675 89.0323 75.6774 87.0347 75.6774 84.5806C75.6774 84.072 75.7933 83.5866 75.9578 83.1192C76.578 84.8313 78.2061 86.0645 80.129 86.0645C82.052 86.0645 83.68 84.8313 84.3002 83.1192C84.4647 83.5866 84.5806 84.072 84.5806 84.5806C84.5806 87.0347 82.5831 89.0323 80.129 89.0323V89.0323ZM81.6129 81.6129C81.6129 82.4302 80.9478 83.0968 80.129 83.0968C79.3103 83.0968 78.6452 82.4302 78.6452 81.6129V62.3226H81.6129V81.6129ZM85.9768 53.4194H80.129V56.3871H89.0323V59.3548H2.96774V56.3871H77.1613V53.4194H29.5274C29.1326 51.4826 27.9813 49.8184 26.3952 48.7482C27.8197 47.5817 28.7927 45.9109 29.0456 43.9981L31.1258 42.9584C32.9683 42.0367 35.0325 41.5484 37.0968 41.5484H72.7097C79.5726 41.5484 85.2364 46.7521 85.9768 53.4194ZM38.5806 2.96774H53.4194L53.4208 20.7742H38.5806V2.96774ZM47.4839 23.7419V26.7097H44.5161V23.7419H47.4839Z" fill="#15A2DE"/>
</svg>
