<svg width="92" height="92" viewBox="0 0 92 92" fill="none" xmlns="http://www.w3.org/2000/svg">
<g clip-path="url(#clip0)">
<path d="M90.8868 55.2608L76.0135 51.0104C73.8444 50.3898 71.5273 50.5405 69.4569 51.4367C71.1869 45.9407 72.0669 40.2123 72.0667 34.4504C72.0519 27.6336 66.779 21.9835 59.9794 21.4984L59.7693 24.565C64.9595 24.9359 68.985 29.2471 69 34.4504C69.004 40.8916 67.8458 47.2806 65.5807 53.3104L64.4966 56.1977C64.4418 56.3453 64.4103 56.5005 64.4031 56.6577L63.1365 79.4507C63.0564 80.7772 62.2424 81.9481 61.0267 82.4852L59.823 51.1929L59.8368 51.1546C61.8432 45.8142 62.8697 40.1554 62.8667 34.4504C62.8642 32.3624 61.172 30.6702 59.0839 30.6677V33.7344C59.4793 33.7344 59.8 34.055 59.8 34.4504C59.8025 39.0296 59.0954 43.5813 57.7039 47.9438C51.544 41.4798 41.3103 41.2335 34.8463 47.3935C34.6585 47.5725 34.4751 47.7559 34.2961 47.9438C32.9048 43.5813 32.1977 39.0296 32.2 34.4504C32.2136 34.0458 32.5527 33.729 32.9573 33.7426C33.0405 33.7455 33.1223 33.7624 33.1997 33.7926C37.2431 35.5305 41.5989 36.4244 46 36.4192C47.6146 36.4194 49.2269 36.3006 50.8239 36.0635L50.3731 33.0306C44.9627 33.834 39.4354 33.1224 34.4049 30.9744C32.4844 30.1521 30.2609 31.0424 29.4387 32.9629C29.2374 33.4331 29.1335 33.9391 29.1333 34.4504C29.1303 40.1554 30.1568 45.8142 32.1632 51.1546L32.177 51.1929L30.9733 82.4852C29.7549 81.9466 28.9401 80.7715 28.8635 79.4415L27.6 56.6485C27.5927 56.4913 27.5613 56.3361 27.5065 56.1885L26.4224 53.3012C24.1575 47.2745 22.9981 40.8887 23 34.4504C23.0008 28.9732 27.4417 24.5336 32.9191 24.5344C34.2618 24.5346 35.5904 24.8075 36.8245 25.3363C41.2409 27.2413 46.1409 27.7235 50.8438 26.7163L50.2059 23.7171C46.1223 24.5921 41.8675 24.1752 38.0313 22.5242C31.4412 19.6992 23.8086 22.7513 20.9835 29.3416C20.2914 30.956 19.9341 32.694 19.9333 34.4504C19.932 40.2123 20.811 45.9405 22.54 51.4367C20.4696 50.5405 18.1526 50.3898 15.9835 51.0104L1.11013 55.2608C0.452908 55.4496 0.000191667 56.0507 0 56.7344V90.4677C0 91.3145 0.68655 92.001 1.53333 92.001H90.4667C91.3134 92.001 92 91.3145 92 90.4677V56.7344C91.9994 56.0497 91.5452 55.4485 90.8868 55.2608ZM30.7249 88.9344H3.06667V57.8905L16.8283 53.959C19.8436 53.1023 23.0508 54.4449 24.5563 57.1944L25.8029 79.6117C25.9701 82.5193 28.0198 84.9751 30.8507 85.6592L30.7249 88.9344ZM35.2207 51.7066C37.6328 48.1209 41.6785 45.9794 46 46.001C50.3198 45.9811 54.3636 48.1222 56.7747 51.7066L57.96 82.387C56.9488 81.8667 56.2469 80.8947 56.0709 79.7712L52.8049 57.9886C52.2393 54.2329 48.7362 51.6468 44.9805 52.2124C41.9963 52.6618 39.6535 55.0044 39.2043 57.9886L35.9383 79.7712C35.7602 80.8966 35.0547 81.869 34.04 82.387L35.2207 51.7066ZM33.7931 88.9344L33.9189 85.6714C36.551 85.0499 38.5457 82.8982 38.9666 80.2266L42.2341 58.444C42.5433 56.3643 44.4801 54.9289 46.5599 55.238C48.2176 55.4845 49.5194 56.7861 49.7659 58.444L53.0334 80.2174C53.4537 82.8896 55.4486 85.042 58.0811 85.6638L58.2069 88.9344H33.7931ZM88.9333 88.9344H61.2751L61.1493 85.6592C63.9803 84.9751 66.0299 82.5193 66.1971 79.6117L67.4437 57.1944C68.9488 54.4445 72.1564 53.1017 75.1717 53.959L88.9333 57.8905V88.9344V88.9344Z" fill="#15A2DE"/>
<path d="M90.4665 4.6H62.8665V1.53333C62.8665 0.68655 62.18 0 61.3332 0H49.0665C48.2198 0 47.5332 0.68655 47.5332 1.53333V16.8667C47.5332 17.7135 48.2198 18.4 49.0665 18.4H53.6665V41.4H56.7332V18.4H61.3332C62.18 18.4 62.8665 17.7135 62.8665 16.8667V13.8H90.4665C91.3133 13.8 91.9999 13.1135 91.9999 12.2667V6.13333C91.9999 5.28655 91.3133 4.6 90.4665 4.6ZM59.7999 15.3333H50.5999V3.06667H59.7999V15.3333ZM88.9332 10.7333H62.8665V7.66667H88.9332V10.7333Z" fill="#15A2DE"/>
</g>
<defs>
<clipPath id="clip0">
<rect width="92" height="92" fill="white"/>
</clipPath>
</defs>
</svg>
