<svg width="89" height="88" viewBox="0 0 89 88" fill="none" xmlns="http://www.w3.org/2000/svg">
<path d="M85.975 64.7012C84.7664 66.3043 83.2031 67.6057 81.4074 68.5035C79.6118 69.4014 77.6326 69.8712 75.625 69.8762H69.875C69.6735 69.8762 69.4743 69.9185 69.2902 70.0005C69.1061 70.0825 68.9414 70.2022 68.8066 70.352L63.7227 76.0008L65.8595 77.9235L70.5152 72.7512H75.625C78.0787 72.7452 80.4978 72.171 82.6925 71.0736C84.8872 69.9763 86.7979 68.3856 88.275 66.4262L85.975 64.7012Z" fill="#15A2DE"/>
<path d="M57.6474 82.7503C57.2329 83.2119 56.7278 83.5833 56.1637 83.8415C55.5995 84.0996 54.9883 84.239 54.368 84.2509C51.829 84.2989 49.7509 82.1532 49.7509 79.6137V79.5368C49.7509 78.9417 49.8681 78.3524 50.0958 77.8026C50.3236 77.2528 50.6574 76.7532 51.0783 76.3324L51.116 76.2947L63.7049 63.7058L61.6719 61.6728L49.0821 74.2626C48.5407 74.8038 47.8744 75.2035 47.142 75.4265C46.4096 75.6494 45.6336 75.6887 44.8825 75.5409C44.2522 75.4217 43.6547 75.1688 43.1303 74.7993C42.5698 74.4102 42.1016 73.9028 41.7585 73.3129C41.4154 72.7231 41.2059 72.0652 41.1447 71.3856C41.0835 70.706 41.1722 70.0212 41.4044 69.3796C41.6366 68.738 42.0067 68.1551 42.4887 67.672L55.0799 55.0808L53.0469 53.0478L40.3883 65.7045C39.5583 66.5345 38.4325 67.0009 37.2587 67.0009V67.0009C36.0493 67.013 34.8801 66.567 33.986 65.7524C33.1801 65.004 32.6654 63.9942 32.5336 62.9023C32.4017 61.8104 32.6611 60.707 33.2657 59.7883L43.7468 49.5834C44.3035 49.6948 44.8698 49.7509 45.4375 49.7509H62.0421L64.518 52.5361C67.3567 55.7274 70.8386 58.2819 74.735 60.0317C78.6313 61.7815 82.8538 62.6869 87.125 62.6884V59.8134C83.2598 59.812 79.4386 58.9927 75.9126 57.4093C72.3866 55.8258 69.2356 53.5142 66.6667 50.6262L63.7619 47.3584C63.627 47.2067 63.4615 47.0852 63.2764 47.0021C63.0912 46.9189 62.8905 46.8759 62.6875 46.8759H45.552C42.3356 46.8759 39.6336 44.2433 39.6884 41.0267C39.7161 39.5197 40.3338 38.0836 41.4088 37.027C42.4837 35.9705 43.9302 35.3776 45.4375 35.3759H72.75V32.5009H61.2901L71.6246 22.4384H87.125V19.5634H74.5772L80.5429 13.755C83.4197 10.9539 83.5201 6.05611 80.715 3.15631C79.68 2.12037 78.3686 1.40427 76.9375 1.09358C75.5064 0.782876 74.0162 0.890704 72.6447 1.40418C69.6134 2.59533 67.7392 5.56323 65.3145 7.74715L67.1341 9.95012C68.5176 8.93147 69.5383 7.5078 70.7213 6.26167C71.9044 5.01554 73.3841 3.88494 75.1005 3.76168C75.8453 3.72046 76.5889 3.86299 77.2657 4.1767C77.9425 4.49041 78.5318 4.9657 78.9817 5.56071C79.6579 6.46551 79.9851 7.58375 79.9034 8.7103C79.8217 9.83685 79.3366 10.8962 78.537 11.694L57.1691 32.5009H45.4375C45.1411 32.5009 44.8449 32.5161 44.55 32.5464L64.9778 12.1186L62.9448 10.0856L53.467 19.5634H42.7673C40.69 19.5577 38.6321 19.964 36.7128 20.7589C34.7935 21.5538 33.0509 22.7215 31.5859 24.1943L28.7156 27.0648L30.7484 29.098L33.618 26.2282C36.0446 23.8017 39.3357 22.4384 42.7673 22.4384H50.592L40.1085 32.9219L24.3718 48.6586C23.9265 49.1131 23.3952 49.4746 22.8088 49.7219C22.2225 49.9692 21.5929 50.0975 20.9565 50.0993C20.2444 50.094 19.543 49.9251 18.9065 49.6057C18.27 49.2863 17.7154 48.8249 17.2855 48.2572C16.7965 47.6195 16.4843 46.8641 16.3802 46.0673C16.2825 45.3553 16.3511 44.6302 16.5808 43.9492C16.8105 43.2681 17.195 42.6496 17.704 42.1422L28.1875 31.6583L26.1552 29.6259L15.671 40.1094C14.6704 41.1095 13.9715 42.371 13.6544 43.7497C13.3373 45.1284 13.4147 46.5685 13.8777 47.9053C14.3408 49.242 15.1709 50.4214 16.2729 51.3084C17.375 52.1955 18.7045 52.7544 20.1093 52.9211L1.29601 71.7344C1.16253 71.8679 1.05664 72.0264 0.984406 72.2008C0.912169 72.3752 0.874993 72.5621 0.875 72.7509V85.6884C0.874998 86.0689 1.02588 86.434 1.29457 86.7034C1.56326 86.9729 1.92783 87.1248 2.30837 87.1259C5.68947 87.1357 9.03893 86.4746 12.1628 85.1809C15.2866 83.8873 18.1228 81.9868 20.5071 79.5895L27.7665 72.3301C27.9 72.1966 28.0059 72.0381 28.0781 71.8636C28.1504 71.6892 28.1875 71.5022 28.1875 71.3134V64.7325L29.6843 63.2751C29.9117 65.0977 30.7971 66.7744 32.174 67.9899C33.5509 69.2055 35.3244 69.8762 37.1611 69.8759H38.331C38.1743 70.9462 38.2498 72.0376 38.5526 73.0761C38.8553 74.1145 39.3781 75.0756 40.0854 75.8939C40.7928 76.7122 41.668 77.3687 42.6517 77.8185C43.6354 78.2684 44.7044 78.5011 45.7861 78.5009C46.1794 78.5006 46.5721 78.4694 46.9605 78.4077C46.9037 78.7811 46.8751 79.1582 46.875 79.5359V79.579C46.875 83.6421 50.0885 87.0557 54.1511 87.1245C55.2105 87.1432 56.2616 86.9342 57.2332 86.5116C58.2049 86.0889 59.0744 85.4626 59.783 84.6748L64.144 79.8295L62.007 77.9069L57.6474 82.7503ZM25.7472 63.0961C25.6096 63.2301 25.5003 63.3902 25.4256 63.567C25.351 63.7439 25.3125 63.9339 25.3125 64.1259V70.7181L18.4741 77.5563C14.5484 81.5047 9.3078 83.8717 3.75 84.2067V73.3462L36.858 40.2384C36.6933 41.8353 36.9778 43.4465 37.6794 44.8904C38.381 46.3344 39.4718 47.5537 40.8291 48.4112L25.7472 63.0961Z" fill="#15A2DE"/>
<path d="M66.5798 14.2346L64.5469 16.2676L67.4218 19.1425L69.4548 17.1096L66.5798 14.2346Z" fill="#15A2DE"/>
<path d="M62.2654 18.5471L60.2324 20.5801L63.1074 23.455L65.1403 21.4221L62.2654 18.5471Z" fill="#15A2DE"/>
<path d="M70.8904 9.92215L68.8574 11.9551L71.7324 14.83L73.7653 12.7971L70.8904 9.92215Z" fill="#15A2DE"/>
<path d="M57.9529 22.8596L55.9199 24.8926L58.7949 27.7675L60.8278 25.7346L57.9529 22.8596Z" fill="#15A2DE"/>
<path d="M53.6423 27.1721L51.6094 29.2051L54.4843 32.08L56.5173 30.0471L53.6423 27.1721Z" fill="#15A2DE"/>
<path d="M34.9529 45.8596L32.9199 47.8926L35.7949 50.7675L37.8278 48.7346L34.9529 45.8596Z" fill="#15A2DE"/>
<path d="M30.6423 50.1721L28.6094 52.2051L31.4843 55.08L33.5173 53.0471L30.6423 50.1721Z" fill="#15A2DE"/>
<path d="M13.4133 72.9871C11.3006 74.8396 8.83843 76.2503 6.17188 77.136L7.08109 79.8637C10.11 78.8575 12.9069 77.255 15.3066 75.1507L23.3856 68.0818L21.4924 65.918L13.4133 72.9871Z" fill="#15A2DE"/>
</svg>
