<svg width="92" height="92" viewBox="0 0 92 92" fill="none" xmlns="http://www.w3.org/2000/svg">
<path d="M1.34766 7.23997H11.2538L14.5457 10.3883L10.5498 14.3842C8.11217 16.8222 8.11217 20.7891 10.5498 23.2269L12.4921 25.1692L10.5101 27.1511C10.2262 27.4352 10.0837 27.8311 10.1214 28.2309C10.1592 28.6309 10.3734 28.9929 10.7054 29.2186L14.0286 31.4777C14.902 32.0717 15.9056 32.3621 16.9041 32.3621C18.0618 32.3621 19.2127 31.9713 20.1449 31.2099L20.9494 32.0144C21.533 32.5978 22.3086 32.9191 23.1339 32.9191C23.959 32.9191 24.7345 32.5978 25.3181 32.0142L27.1447 30.1875C27.7281 29.6042 28.0494 28.8285 28.0494 28.0034C28.0494 27.1781 27.7281 26.4024 27.1447 25.8193L26.3585 25.0332L26.9573 24.4344L27.7434 25.2206C28.3268 25.8038 29.1025 26.1251 29.9277 26.1251C30.7528 26.1251 31.5285 25.8038 32.112 25.2206L33.9387 23.3939C35.1429 22.1894 35.1429 20.2296 33.9387 19.0251L33.1525 18.239L33.7512 17.6403L34.5374 18.4264C35.1397 19.0285 35.9305 19.3293 36.7215 19.3293C37.5125 19.3293 38.3036 19.0284 38.9059 18.4264L40.7326 16.5997C41.9369 15.3954 41.9369 13.4358 40.7325 12.231L39.9282 11.4267C41.3461 9.69055 41.4785 7.19666 40.1961 5.3103L37.9369 1.98698C37.7112 1.65474 37.3491 1.44073 36.9491 1.403C36.5522 1.3658 36.1537 1.50776 35.8694 1.79166L33.8874 3.77344L31.9454 1.83138C30.7643 0.650469 29.1942 0 27.524 0C25.8536 0 24.2835 0.650469 23.1026 1.83138L16.4518 8.48197L12.7258 4.91841C12.475 4.67852 12.1415 4.54466 11.7943 4.54466H1.34766C0.603211 4.54466 0 5.14787 0 5.89231C0 6.63676 0.603211 7.23997 1.34766 7.23997V7.23997ZM25.2387 27.7249C25.334 27.8201 25.3541 27.9288 25.3541 28.0032C25.3541 28.0776 25.3341 28.1863 25.2387 28.2816C25.2387 28.2816 25.2385 28.2816 25.2385 28.2817L23.412 30.1083C23.2586 30.2621 23.0084 30.2617 22.8552 30.1083L22.069 29.3223L24.4526 26.9387L25.2387 27.7249ZM32.0327 20.9307C32.1862 21.0842 32.1862 21.3339 32.0327 21.4876L30.206 23.3143C30.0526 23.4679 29.8028 23.4679 29.6493 23.3143L28.8632 22.5281L31.2468 20.1446L32.0327 20.9307ZM38.8267 14.6934L37.0002 16.5201C36.8465 16.6734 36.5966 16.6736 36.4431 16.5203L35.657 15.7342L38.0406 13.3506L38.8267 14.1366C38.9803 14.29 38.9803 14.5401 38.8267 14.6934ZM36.6235 4.84905L37.9673 6.82543C38.6208 7.78676 38.4984 9.08105 37.6765 9.90294C35.4807 12.0987 20.6008 26.9785 18.6214 28.9579C17.7998 29.78 16.5054 29.902 15.5439 29.2486L13.5677 27.9051C18.6976 22.7752 33.711 7.76178 36.6235 4.84905V4.84905ZM25.0085 3.73732C25.6804 3.06547 26.5738 2.69531 27.524 2.69531C28.4742 2.69531 29.3676 3.06547 30.0394 3.7375L31.9815 5.67938L14.398 23.2631L12.4559 21.3208C11.0687 19.9338 11.0687 17.6769 12.4559 16.2899L25.0085 3.73732Z" fill="#15A2DE"/>
<path d="M57.1037 11.6543H53.9727C53.2282 11.6543 52.625 12.2575 52.625 13.002C52.625 13.7464 53.2282 14.3496 53.9727 14.3496H57.1037C57.8481 14.3496 58.4514 13.7464 58.4514 13.002C58.4514 12.2575 57.8481 11.6543 57.1037 11.6543Z" fill="#15A2DE"/>
<path d="M57.1037 16.6016H53.9727C53.2282 16.6016 52.625 17.2048 52.625 17.9492C52.625 18.6937 53.2282 19.2969 53.9727 19.2969H57.1037C57.8481 19.2969 58.4514 18.6937 58.4514 17.9492C58.4514 17.2048 57.8481 16.6016 57.1037 16.6016Z" fill="#15A2DE"/>
<path d="M57.1037 21.5527H53.9727C53.2282 21.5527 52.625 22.1559 52.625 22.9004C52.625 23.6448 53.2282 24.248 53.9727 24.248H57.1037C57.8481 24.248 58.4514 23.6448 58.4514 22.9004C58.4514 22.1559 57.8481 21.5527 57.1037 21.5527V21.5527Z" fill="#15A2DE"/>
<path d="M57.1037 26.502H53.9727C53.2282 26.502 52.625 27.1052 52.625 27.8496C52.625 28.5941 53.2282 29.1973 53.9727 29.1973H57.1037C57.8481 29.1973 58.4514 28.5941 58.4514 27.8496C58.4514 27.1052 57.8481 26.502 57.1037 26.502Z" fill="#15A2DE"/>
<path d="M76.7306 20.9578C76.3835 20.5799 75.8525 20.432 75.36 20.5762C74.8678 20.7201 74.4998 21.1309 74.4108 21.636L73.7068 25.6363L70.2942 18.1793C70.0969 17.7484 69.6878 17.4525 69.2166 17.4005C68.7457 17.349 68.2815 17.5481 67.9951 17.9258L65.2439 21.5533H61.9687C61.2243 21.5533 60.6211 22.1565 60.6211 22.901C60.6211 23.6454 61.2243 24.2486 61.9687 24.2486H65.9131C66.3348 24.2486 66.7321 24.0511 66.9869 23.7153L68.7809 21.3499L73.058 30.696C73.2792 31.1797 73.7611 31.4828 74.2827 31.4828C74.3395 31.4828 74.397 31.4792 74.4545 31.4719C75.0399 31.3968 75.5082 30.9499 75.6106 30.3686L76.5921 24.7914L77.1045 25.3492C77.4009 25.6717 77.8357 25.8308 78.2702 25.7738C78.7047 25.7176 79.0847 25.4536 79.289 25.066L80.6435 22.4976L80.7012 23.0427C80.7736 23.7281 81.3518 24.2484 82.0413 24.2484H84.7585C85.503 24.2484 86.1062 23.6452 86.1062 22.9008C86.1062 22.1563 85.503 21.5531 84.7585 21.5531H83.2538L82.8574 17.8093C82.7949 17.2194 82.3541 16.7397 81.7717 16.6277C81.1887 16.5161 80.6018 16.7979 80.3253 17.3226L77.7963 22.1181L76.7306 20.9578Z" fill="#15A2DE"/>
<path d="M87.0119 49.3914H42.4285C41.6841 49.3914 41.0809 49.9946 41.0809 50.7391C41.0809 51.4835 41.6841 52.0867 42.4285 52.0867H87.0119C88.2762 52.0867 89.3047 53.1153 89.3047 54.3795V56.522H2.69531V54.3795C2.69531 53.1153 3.72384 52.0867 4.98813 52.0867H37.0402C37.7847 52.0867 38.3879 51.4835 38.3879 50.7391C38.3879 49.9946 37.7847 49.3914 37.0402 49.3914H18.9274V47.6125C18.9274 45.6334 17.3174 44.0234 15.3383 44.0234H8.25053C6.27145 44.0234 4.66145 45.6334 4.66145 47.6125V49.402C2.06263 49.5708 0 51.7389 0 54.3795V57.8696C0 58.6141 0.603211 59.2173 1.34766 59.2173H5.9243V60.639C5.9243 63.142 7.96052 65.1784 10.4636 65.1784H18.2669C19.0113 65.1784 19.6145 64.5752 19.6145 63.8308C19.6145 63.0863 19.0113 62.4831 18.2669 62.4831H10.4634C9.44671 62.4831 8.61943 61.6558 8.61943 60.639V59.2173H83.3806V60.639C83.3806 61.6558 82.5533 62.4831 81.5364 62.4831C75.4377 62.4831 31.071 62.4831 23.655 62.4831C22.9105 62.4831 22.3073 63.0863 22.3073 63.8308C22.3073 64.5752 22.9105 65.1784 23.655 65.1784H33.5214L39.1821 68.7693L33.4422 70.9085C32.9148 71.105 32.5651 71.6085 32.5651 72.1711V76.1699H21.2087C19.2886 76.1699 17.7265 77.7319 17.7265 79.6521V83.4711C15.9735 84.0406 14.7027 85.6897 14.7027 87.6302C14.7027 90.0407 16.6637 92.0016 19.0742 92.0016C21.4847 92.0016 23.4458 90.0407 23.4458 87.6302C23.4458 85.6897 22.1749 84.0406 20.4218 83.4711V79.6521C20.4218 79.2181 20.7747 78.8652 21.2087 78.8652H68.03C68.4638 78.8652 68.8169 79.2181 68.8169 79.6521V83.4711C67.0639 84.0406 65.7931 85.6897 65.7931 87.6302C65.7931 90.0407 67.754 92.0016 70.1646 92.0016C72.5751 92.0016 74.5362 90.0407 74.5362 87.6302C74.5362 85.6897 73.2652 84.0406 71.5122 83.4711V79.6521C71.5122 77.7319 69.9502 76.1699 68.03 76.1699H55.8801L45.2078 69.3998L56.5347 65.1782H81.5363C84.0393 65.1782 86.0757 63.1418 86.0757 60.6388V59.2171H90.6523C91.3968 59.2171 92 58.6139 92 57.8694V54.3794C92 51.6291 89.7623 49.3914 87.0119 49.3914ZM7.35677 47.6125C7.35677 47.1198 7.75765 46.7188 8.25053 46.7188H15.3383C15.831 46.7188 16.2321 47.1196 16.2321 47.6125V49.3914H7.35677V47.6125ZM19.0742 89.3063C18.1499 89.3063 17.3981 88.5543 17.3981 87.6302C17.3981 86.7105 18.1425 85.9616 19.0604 85.9542C19.065 85.9542 19.0695 85.9544 19.0742 85.9544C19.0789 85.9544 19.0835 85.9542 19.088 85.9542C20.006 85.9618 20.7505 86.7105 20.7505 87.6302C20.7505 88.5543 19.9987 89.3063 19.0742 89.3063V89.3063ZM70.1646 89.3063C69.2402 89.3063 68.4884 88.5543 68.4884 87.6302C68.4884 86.7105 69.2329 85.9616 70.1507 85.9542C70.1554 85.9542 70.1599 85.9544 70.1646 85.9544C70.1692 85.9544 70.1739 85.9542 70.1784 85.9542C71.0964 85.9618 71.8409 86.7105 71.8409 87.6302C71.841 88.5543 71.089 89.3063 70.1646 89.3063ZM50.8487 76.1701H35.2606V73.1073L42.0384 70.5813L50.8487 76.1701ZM42.3518 67.588L38.5532 65.1782H48.8175L42.3518 67.588Z" fill="#15A2DE"/>
<path d="M88.7028 6.7832H82.0603C81.3159 6.7832 80.7127 7.38641 80.7127 8.13086C80.7127 8.8753 81.3159 9.47852 82.0603 9.47852H88.7028C89.0344 9.47852 89.3041 9.74823 89.3041 10.0798V34.8596C89.3041 35.1913 89.0344 35.461 88.7028 35.461H50.5311C50.1994 35.461 49.9297 35.1913 49.9297 34.8596V10.0798C49.9297 9.74823 50.1994 9.47852 50.5311 9.47852H76.672C77.4165 9.47852 78.0197 8.8753 78.0197 8.13086C78.0197 7.38641 77.4165 6.7832 76.672 6.7832H50.5311C48.7134 6.7832 47.2344 8.26185 47.2344 10.0798V34.8596C47.2344 36.6773 48.7132 38.1563 50.5311 38.1563H88.703C90.5207 38.1563 91.9996 36.6775 91.9996 34.8596V10.0798C91.9994 8.26203 90.5207 6.7832 88.7028 6.7832V6.7832Z" fill="#15A2DE"/>
</svg>
