<svg width="86" height="92" viewBox="0 0 86 92" fill="none" xmlns="http://www.w3.org/2000/svg">
<path d="M85.4044 89.7868L80.9959 71.2799C80.8466 70.6533 80.6628 70.0226 80.449 69.4056C80.1243 68.4678 79.101 67.9706 78.1632 68.2954C77.2252 68.6201 76.7284 69.6435 77.0531 70.5812C77.2277 71.086 77.3781 71.6012 77.4998 72.1124L81.3812 88.4062H70.7976V75.0226C70.7976 74.0304 69.993 73.2257 69.0007 73.2257C68.0085 73.2257 67.2038 74.0304 67.2038 75.0226V88.4062H18.0392V75.0226C18.0392 74.0304 17.2347 73.2257 16.2423 73.2257C15.2499 73.2257 14.4454 74.0304 14.4454 75.0226V88.4062H4.61995L8.50138 72.1124C9.83178 66.5268 14.0814 62.0545 19.5919 60.4411L23.9324 59.1702L31.1495 69.2483C31.696 70.0116 32.7748 70.2235 33.5696 69.7216L42.9714 63.7874L52.0235 69.7062C52.8078 70.2186 53.8854 70.0278 54.4459 69.2782L62.0155 59.1546L66.4093 60.4411C66.7235 60.5333 67.0434 60.6382 67.3604 60.7531C68.2936 61.0918 69.324 60.61 69.6625 59.6773C70.0012 58.7445 69.5195 57.7136 68.5867 57.3751C68.199 57.2342 67.8062 57.1054 67.4193 56.9922L54.7865 53.2923C53.7966 53.0042 53.045 52.1211 52.914 51.0981L52.1554 45.207H63.6002C68.0415 45.207 71.4394 40.9418 70.4328 36.6074L66.7552 20.753C66.6421 20.1223 65.7297 15.3836 63.0721 10.5875C59.2338 3.66113 53.6249 0 46.8517 0C45.2604 0 43.8578 0.525406 42.8276 1.4048C41.7976 0.525406 40.395 0 38.8035 0C31.8688 0 26.2288 3.72726 22.4931 10.7791C19.9302 15.6172 19.1234 20.3981 19.0144 21.1061L15.3419 36.9297C14.3351 41.2654 17.7344 45.5298 22.1763 45.5298H33.8046L33.0873 51.0988C32.9559 52.1225 32.2032 53.0055 31.2117 53.2933L18.5817 56.9922C11.836 58.9673 6.63388 64.4419 5.00502 71.2795L0.596564 89.7868C0.331884 90.8985 1.20283 92 2.34456 92H83.6564C84.7983 92 85.6691 90.8985 85.4044 89.7868V89.7868ZM33.0844 65.7778L27.5863 58.1005C27.5863 58.1005 32.3134 56.7149 32.3497 56.7036L39.6899 61.6086L33.0844 65.7778ZM35.7129 54.1294C36.2088 53.3578 36.5351 52.4671 36.6525 51.5574L37.3355 46.2555C41.0173 47.4301 45.0061 47.3511 48.6378 46.0341L49.3494 51.5581C49.4838 52.6001 49.8913 53.6162 50.5154 54.4617L42.9884 59.4906L35.4777 54.4717C35.5567 54.358 35.6351 54.2439 35.7129 54.1294V54.1294ZM52.578 65.775L46.2473 61.6355L53.6365 56.6986C53.673 56.7103 58.3343 58.0766 58.3343 58.0766L52.578 65.775ZM66.2785 40.3204C65.6255 41.1421 64.6494 41.6135 63.6 41.6135H55.3743C58.4207 38.4042 60.1594 34.1324 60.161 29.5807V22.9179H63.568L66.9322 37.4199C67.1692 38.4418 66.9311 39.4989 66.2785 40.3204V40.3204ZM46.8517 3.59375C52.291 3.59375 56.6758 6.50648 59.8848 12.2509C61.3545 14.8819 62.2432 17.5492 62.73 19.3236H55.779C49.2126 19.3236 44.6263 15.2848 44.6243 9.50116C44.6243 9.4999 44.6243 9.49882 44.6243 9.49756V5.30473C44.6243 5.30402 44.6243 5.30348 44.6243 5.30276C44.6259 4.18079 45.7456 3.59375 46.8517 3.59375V3.59375ZM25.6689 12.4615C28.7859 6.57728 33.2052 3.59375 38.8035 3.59375C39.9102 3.59375 41.0307 4.18151 41.0307 5.30473V9.49756C41.0307 15.3786 36.3396 19.6467 29.8761 19.6467H22.9819C23.4174 17.8678 24.2393 15.1601 25.6689 12.4615ZM22.1765 41.9362C20.0102 41.9362 18.3524 39.854 18.8428 37.7425L22.2083 23.2406H25.1633V29.5875C25.1645 34.1897 27.0187 38.6758 30.2675 41.9362H22.1765ZM28.7572 29.587V23.2406H29.8763C35.0443 23.2406 40.2216 20.8457 42.858 16.2655C45.3016 20.3372 50.0036 22.9175 55.7791 22.9175H56.5672V29.5839C56.5656 34.3264 54.1873 38.69 50.2027 41.2654C46.0988 43.7503 41.0165 44.229 36.6298 42.115C31.8487 39.808 28.7586 34.8905 28.7572 29.587V29.587Z" fill="#15A2DE"/>
<path d="M40.9846 34.1745H44.1316C45.1238 34.1745 45.9285 33.3698 45.9285 32.3776C45.9285 31.3853 45.1238 30.5807 44.1316 30.5807H43.4923L44.7483 26.8809C45.0672 25.9414 44.5643 24.9209 43.6245 24.6018C42.684 24.2827 41.6643 24.7858 41.3452 25.7255L39.2829 31.7999C39.0966 32.3485 39.1864 32.9533 39.5239 33.4241C39.8615 33.8952 40.4052 34.1745 40.9846 34.1745V34.1745Z" fill="#15A2DE"/>
<path d="M48.0703 73.7363C47.0781 73.7363 46.2734 74.541 46.2734 75.5332V82.976C46.2734 83.9683 47.0781 84.7729 48.0703 84.7729H61.7512C62.7434 84.7729 63.5481 83.9683 63.5481 82.976V75.5332C63.5481 74.541 62.7434 73.7363 61.7512 73.7363H48.0703ZM59.9541 81.179H49.867V77.3299H59.9541V81.179Z" fill="#15A2DE"/>
<path d="M73.011 64.0716C73.3822 64.9781 74.4548 65.4176 75.3577 65.0437C76.2617 64.6692 76.7048 63.6014 76.3298 62.697C75.9546 61.7923 74.8873 61.3513 73.9829 61.7249C73.0798 62.0981 72.6347 63.169 73.011 64.0716V64.0716Z" fill="#15A2DE"/>
</svg>
