<svg width="92" height="92" viewBox="0 0 92 92" fill="none" xmlns="http://www.w3.org/2000/svg">
<path d="M87.9723 28.488L87.4663 27.6452C84.7004 23.0393 79.8422 19.9558 74.4928 19.4053C73.8384 19.3281 73.2553 19.291 72.7107 19.291C64.5286 19.291 57.872 25.9477 57.872 34.1297C57.872 37.513 59.0116 40.6365 60.9243 43.1353C59.8648 44.5064 59.0754 46.0408 58.5605 47.6656L53.7498 52.4763C53.0731 53.1529 52.4766 53.886 51.9365 54.6517V48.9684H48.9688V62.3233H49.0593C49.0014 62.8827 48.9688 63.4481 48.9688 64.0193V92.0007H51.9365V64.0193C51.9365 60.4521 53.3254 57.0986 55.848 54.576L57.8972 52.5282C57.9417 53.9246 58.1732 55.2749 58.5842 56.5466L57.9476 57.1831C55.9845 59.1433 54.9042 61.752 54.9042 64.5268V92.0007H57.872V64.5268C57.872 62.62 58.602 60.8335 59.9034 59.4535C62.4794 63.825 67.2486 66.7749 72.7107 66.7749C73.2553 66.7749 73.8384 66.7378 74.4706 66.6636C79.8422 66.1101 84.7004 63.0281 87.4663 58.4207L87.9723 57.5779C90.6076 53.1841 92.001 48.1553 92.001 43.033C92.001 37.9091 90.6076 32.8788 87.9723 28.488ZM85.4275 56.0495L84.9215 56.8923C82.6348 60.7014 78.6135 63.2507 74.1441 63.7122C73.6737 63.7686 73.1959 63.8071 72.7107 63.8071C66.1653 63.8071 60.8397 58.535 60.8397 52.0564C60.8397 49.6332 61.595 47.2976 62.9898 45.333C65.5955 47.5959 68.9951 48.9684 72.7107 48.9684V46.0007C66.1653 46.0007 60.8397 40.6751 60.8397 34.1297C60.8397 27.0991 67.0378 21.5183 74.1664 22.3552C78.6135 22.8137 82.6348 25.3615 84.9215 29.1721L85.4275 30.015C87.7868 33.9457 89.0333 38.4463 89.0333 43.033C89.0333 47.6181 87.7868 52.1187 85.4275 56.0495Z" fill="#15A2DE"/>
<path d="M82.8829 31.5429L82.3754 30.6956C80.568 27.6849 77.3866 25.6683 73.8802 25.3077C73.4276 25.2558 73.0745 25.2246 72.7109 25.2246V28.1924C72.9676 28.1924 73.2199 28.2176 73.5582 28.2576C76.1565 28.5262 78.5025 30.0086 79.832 32.2211L80.3395 33.0684C81.1735 34.4602 81.8338 35.956 82.2967 37.52L85.1428 36.6742C84.6071 34.8727 83.8474 33.1455 82.8829 31.5429Z" fill="#15A2DE"/>
<path d="M85.838 39.8555L82.8984 40.2754C83.029 41.1865 83.0958 42.1139 83.0958 43.0339H86.0635C86.0635 41.973 85.9864 40.9046 85.838 39.8555Z" fill="#15A2DE"/>
<path d="M25.2265 34.1278C25.2265 35.7794 24.5261 37.3701 23.3049 38.4934L25.314 40.6791C27.1437 38.9949 28.1942 36.6074 28.1942 34.1278C28.1942 29.2177 24.2011 25.2246 19.291 25.2246V28.1924C22.5644 28.1924 25.2265 30.8544 25.2265 34.1278Z" fill="#15A2DE"/>
<path d="M21.6637 39.5703C20.9144 39.8997 20.116 40.0659 19.291 40.0659V43.0337C20.5286 43.0337 21.7275 42.7829 22.8538 42.2888L21.6637 39.5703Z" fill="#15A2DE"/>
<path d="M51.9365 0H48.9688V46H51.9365V0Z" fill="#15A2DE"/>
<path d="M40.0645 54.651C39.5244 53.8853 38.9279 53.1523 38.2512 52.4756L33.442 47.6649C32.9271 46.0401 32.1362 44.5043 31.0782 43.1332C32.9894 40.6358 34.129 37.5123 34.129 34.129C34.129 25.947 27.4724 19.2903 19.2903 19.2903C18.7457 19.2903 18.1626 19.3274 17.529 19.4016C12.1574 19.9551 7.29916 23.0371 4.53323 27.6445L4.02723 28.4874C1.39187 32.8811 0 37.9099 0 43.0323C0 48.1531 1.39187 53.1819 4.02871 57.5772L4.53471 58.42C7.30065 63.0274 12.1588 66.1094 17.5082 66.6599C18.1626 66.7371 18.7457 66.7742 19.2903 66.7742C24.7525 66.7742 29.5216 63.8243 32.0976 59.4528C33.399 60.8343 34.129 62.6208 34.129 64.5261V92H37.0968V64.5261C37.0968 61.7513 36.015 59.1426 34.0534 57.181L33.4168 56.5444C33.8293 55.2712 34.0593 53.9224 34.1038 52.5261L36.153 54.5738C38.6741 57.0964 40.0645 60.4499 40.0645 64.0172V92H43.0323V64.0186C43.0323 63.4488 42.9996 62.8835 42.9417 62.3226H43.0323V0H40.0645V54.651ZM17.8346 63.71C13.3875 63.2515 9.36619 60.7037 7.07955 56.8931L6.57355 56.0488C4.21419 52.1165 2.96774 47.6159 2.96774 43.0323C2.96774 38.4471 4.21419 33.9465 6.57355 30.0157L7.07955 29.1729C9.36619 25.3638 13.3875 22.8145 17.8569 22.353C18.3273 22.2966 18.8051 22.2581 19.2903 22.2581C25.8357 22.2581 31.1613 27.5837 31.1613 34.129C31.1613 40.6744 25.8357 46 19.2903 46V48.9677C23.0059 48.9677 26.4055 47.5952 29.0126 45.3308C30.406 47.2984 31.1613 49.634 31.1613 52.0557C31.1613 59.015 24.9765 64.5528 17.8346 63.71Z" fill="#15A2DE"/>
</svg>
