<svg width="108" height="116" viewBox="0 0 108 116" fill="none" xmlns="http://www.w3.org/2000/svg">
<path d="M36.7383 65.6504L46.3491 56.0396L51.1544 60.845L41.5437 70.4558L36.7383 65.6504Z" fill="#15A2DE"/>
<path d="M80.4922 20.5195C83.9049 20.5227 86.6832 23.3015 86.6864 26.7142L93.4833 26.7083C93.4772 19.5544 87.652 13.729 80.4983 13.7227L80.4922 20.5195Z" fill="#15A2DE"/>
<path d="M100.41 26.7344H107.207C107.207 12.0481 95.1564 0 80.4727 0V6.79688C91.4664 6.79688 100.41 15.7409 100.41 26.7344Z" fill="#15A2DE"/>
<path d="M1.59503 109.707C3.20294 113.588 6.81231 116 11.0144 116H106.754V109.203H11.0144C8.90734 109.203 8.07834 107.598 7.87466 107.105C7.67098 106.613 7.12157 104.892 8.61122 103.402L12.2784 99.7346C18.8086 104.071 27.799 103.439 33.6659 97.5714L58.3761 72.8612C60.1324 71.1051 63.8739 71.2727 67.8363 71.4501C72.8489 71.6747 78.5325 71.9293 82.4069 68.0551L98.7015 51.7605L97.3365 49.4851C87.6172 33.2875 73.9188 19.5891 57.7216 9.8709L55.4462 8.50586L39.1516 24.8002C35.3642 28.5859 35.5194 34.0737 35.7566 39.3709C35.9342 43.3326 36.1019 47.0745 34.3455 48.831L9.63528 73.5411C3.77433 79.4018 3.13135 88.3918 7.47206 94.9288L3.80515 98.5957C0.83378 101.567 -0.0131109 105.824 1.59503 109.707ZM56.4762 17.088C69.994 25.6585 81.548 37.2125 90.1189 50.7308L85.1819 55.6678C77.0388 42.3729 65.5944 30.6338 51.5392 22.0251L56.4762 17.088ZM14.4414 78.3472L39.1516 53.6369C43.0261 49.7624 42.7714 44.08 42.5467 39.0664C42.4202 36.2471 42.0555 31.5083 43.9577 29.6061L46.5863 26.9775C60.4936 35.1566 72.0499 46.7129 80.2292 60.6202L77.6006 63.2488C75.8441 65.0051 72.1026 64.8375 68.1403 64.6601C63.1267 64.4355 57.4443 64.1807 53.5698 68.0551L28.8598 92.7656C24.8759 96.7497 18.4266 96.7506 14.4414 92.7656C10.4566 88.7808 10.4566 82.3322 14.4414 78.3472Z" fill="#15A2DE"/>
</svg>
