<svg width="116" height="116" viewBox="0 0 116 116" fill="none" xmlns="http://www.w3.org/2000/svg">
<path d="M106.332 30.9336H9.66576C8.59807 30.9336 7.73242 31.7992 7.73242 32.8669V83.1336C7.73242 84.2013 8.59807 85.0669 9.66576 85.0669H22.3581C24.0355 94.5707 23.1355 104.35 19.752 113.388C19.3771 114.388 19.8839 115.502 20.8837 115.877C21.1005 115.958 21.33 116 21.5616 116H94.4366C95.5043 116 96.3697 115.134 96.3692 114.066C96.3692 113.835 96.3274 113.605 96.2462 113.388C92.8627 104.35 91.9627 94.5707 93.6401 85.0669H106.332C107.4 85.0669 108.266 84.2013 108.266 83.1336V32.8669C108.266 31.7992 107.4 30.9336 106.332 30.9336ZM24.2818 112.134C27.0885 103.398 27.7777 94.121 26.2924 85.0669H89.7058C88.2205 94.121 88.9097 103.398 91.7164 112.134H24.2818ZM104.399 81.2003H94.398L100.198 54.5435L96.4183 53.7237L90.4404 81.2003H25.5578L19.5857 53.7237L15.806 54.5435L21.606 81.2003H11.5991V34.8003H56.0658V47.2993L54.1324 48.5888V40.6351C54.1324 39.5674 53.2668 38.7017 52.1991 38.7017C46.7316 38.6858 41.4853 40.8593 37.6314 44.7376C30.8428 51.4857 27.038 60.6702 27.0658 70.2421C27.0498 72.9942 28.6441 75.5018 31.1432 76.655C32.089 77.1004 33.1214 77.3321 34.1669 77.3336C35.8197 77.33 37.4185 76.7447 38.6832 75.6806L40.1564 74.4549C40.8951 73.8379 41.827 73.4998 42.7896 73.4998H46.1516C50.5555 73.4945 54.1249 69.9268 54.1324 65.5229V53.2346L57.9991 50.6536L61.8658 53.2307V65.4823C61.8689 69.8893 65.4395 73.4616 69.8466 73.4669H73.2086C74.1707 73.4672 75.1023 73.8045 75.8418 74.4201L77.315 75.6458C78.5804 76.7101 80.1797 77.2954 81.8332 77.2988C82.8772 77.2971 83.9082 77.0661 84.8531 76.6221C87.3531 75.4677 88.9481 72.9589 88.9324 70.2054C88.9588 60.6339 85.154 51.4499 78.3668 44.7009C74.5119 40.8243 69.2661 38.6515 63.7991 38.6669C62.7314 38.6669 61.8658 39.5326 61.8658 40.6003V48.5888L59.9324 47.2993V34.8003H104.399V81.2003ZM50.2658 42.6767V65.5229C50.2614 67.7928 48.4218 69.6319 46.1516 69.6351H42.7896C40.9217 69.6358 39.1133 70.2902 37.6778 71.4853L36.2066 72.711C34.8428 73.8483 32.8155 73.6644 31.6782 72.3006C31.1963 71.7228 30.9324 70.9944 30.9324 70.2421C30.9078 61.6963 34.3046 53.4963 40.3652 47.4713C43.024 44.7937 46.5163 43.1025 50.2658 42.6767ZM65.7324 65.4861V42.6438C69.4812 43.0694 72.973 44.7591 75.633 47.4346C81.6926 53.4603 85.0892 61.6598 85.0658 70.2054C85.0665 71.9812 83.6278 73.4212 81.8521 73.422C81.099 73.4222 80.3699 73.1583 79.7916 72.6762L78.3184 71.4485C76.8824 70.2559 75.0753 69.6022 73.2086 69.6003H69.8466C67.5754 69.5981 65.7346 67.7573 65.7324 65.4861Z" fill="#15A2DE"/>
<path d="M98.0471 13.5333H73.4667V1.93333C73.4667 0.86565 72.601 0 71.5333 0H44.4667C43.399 0 42.5333 0.86565 42.5333 1.93333V13.5333H17.9529C8.04388 13.5483 0.0149833 21.5772 0 31.4863V40.6H3.86667V31.4863C3.88165 23.7128 10.1795 17.415 17.9529 17.4H44.4667C45.5343 17.4 46.4 16.5343 46.4 15.4667V3.86667H69.6V15.4667C69.6 16.5343 70.4656 17.4 71.5333 17.4H98.0471C105.821 17.415 112.118 23.7128 112.133 31.4863V40.6H116V31.4863C115.985 21.5772 107.956 13.5483 98.0471 13.5333Z" fill="#15A2DE"/>
<path d="M45.0322 52.7676L41.732 56.0678H36.7324V59.9344H40.5991V63.8011H44.4658V58.8015L47.766 55.5013L45.0322 52.7676Z" fill="#15A2DE"/>
<path d="M74.2664 56.0678L70.9662 52.7676L68.2324 55.5013L71.5326 58.8015V63.8011H75.3993V59.9344H79.266V56.0678H74.2664Z" fill="#15A2DE"/>
</svg>
