<svg width="14" height="20" viewBox="0 0 14 20" fill="none" xmlns="http://www.w3.org/2000/svg">
<path d="M7.00066 0C3.32473 0 0.333984 2.99074 0.333984 6.66668C0.333984 7.7702 0.609883 8.86434 1.13437 9.8348L6.63609 19.7852C6.70934 19.9178 6.84891 20 7.00066 20C7.15242 20 7.29199 19.9178 7.36523 19.7852L12.869 9.83152C13.3914 8.86434 13.6673 7.77016 13.6673 6.66664C13.6673 2.99074 10.6766 0 7.00066 0ZM7.00066 10C5.16269 10 3.66734 8.50465 3.66734 6.66668C3.66734 4.82871 5.16269 3.33336 7.00066 3.33336C8.83863 3.33336 10.334 4.82871 10.334 6.66668C10.334 8.50465 8.83863 10 7.00066 10Z" fill="#15A2DE"/>
</svg>
