<svg width="20" height="20" viewBox="0 0 20 20" fill="none" xmlns="http://www.w3.org/2000/svg">
<g clip-path="url(#clip0)">
<path d="M13.2578 10.1027L20.0003 14.3652V5.66016L13.2578 10.1027Z" fill="#15A2DE"/>
<path d="M0 5.66016V14.3652L6.7425 10.1027L0 5.66016Z" fill="#15A2DE"/>
<path d="M18.7496 3.125H1.24961C0.625859 3.125 0.130859 3.59 0.0371094 4.18875L9.99961 10.7525L19.9621 4.18875C19.8684 3.59 19.3734 3.125 18.7496 3.125Z" fill="#15A2DE"/>
<path d="M12.1116 10.8567L10.3428 12.0217C10.2378 12.0905 10.1191 12.1242 9.99906 12.1242C9.87906 12.1242 9.76031 12.0905 9.65531 12.0217L7.88656 10.8555L0.0390625 15.8192C0.135312 16.413 0.627812 16.8742 1.24906 16.8742H18.7491C19.3703 16.8742 19.8628 16.413 19.9591 15.8192L12.1116 10.8567Z" fill="#15A2DE"/>
</g>
<defs>
<clipPath id="clip0">
<rect width="20" height="20" fill="white"/>
</clipPath>
</defs>
</svg>
