<svg width="20" height="20" viewBox="0 0 20 20" fill="none" xmlns="http://www.w3.org/2000/svg">
<path d="M19.4561 14.678L16.6651 11.8869C15.6683 10.8901 13.9737 11.2889 13.575 12.5847C13.2759 13.4819 12.2791 13.9803 11.382 13.7809C9.38839 13.2825 6.69701 10.6908 6.1986 8.59746C5.89956 7.7003 6.49765 6.70349 7.39477 6.40448C8.69062 6.00576 9.08934 4.31119 8.09254 3.31438L5.30148 0.523324C4.50403 -0.174441 3.30786 -0.174441 2.6101 0.523324L0.716166 2.41726C-1.17777 4.41087 0.915528 9.69395 5.60052 14.3789C10.2855 19.0639 15.5686 21.2569 17.5622 19.2633L19.4561 17.3694C20.1539 16.5719 20.1539 15.3757 19.4561 14.678Z" fill="#15A2DE"/>
</svg>
